<?xml version="1.0" encoding="utf-8"?>
<!-- Generator: Adobe Illustrator 26.4.1, SVG Export Plug-In . SVG Version: 6.00 Build 0)  -->
<svg version="1.1" xmlns="http://www.w3.org/2000/svg" xmlns:xlink="http://www.w3.org/1999/xlink" x="0px" y="0px"
	 viewBox="0 0 676.03 841.89" style="enable-background:new 0 0 676.03 841.89;" xml:space="preserve">
<style type="text/css">
	.st0{fill:#C6C6C6;}
	.st1{display:none;}
	.st2{display:inline;fill:#E5C2AA;}
	.st3{fill:#E5C2AA;}
	.st4{fill:#504B49;}
	.st5{fill:#EFD7C7;}
	.st6{fill:#FCEFE6;}
	.st7{fill:#CEA893;}
	.st8{fill:#F2DBCC;}
	.st9{display:none;fill:#DD6271;}
	.st10{fill:#DD6271;}
	.st11{fill:#C44B55;}
	.st12{fill:#769EB7;stroke:#000000;stroke-miterlimit:10;}
	.st13{fill:#5E889E;}
	.st14{fill:none;stroke:#000000;stroke-miterlimit:10;}
	.st15{display:inline;fill:#504B49;}
	.st16{display:none;fill:#827A77;}
	.st17{fill:#B6A197;}
	.st18{fill:#676462;}
	.st19{fill:#5B5A58;stroke:#000000;stroke-miterlimit:10;}
	.st20{fill:#4C4745;}
	.st21{fill:#6A6361;}
	.st22{fill:#878787;}
	.st23{display:inline;}
	.st24{fill:#73706F;}
	.st25{fill:#464240;}
	.st26{display:inline;fill:#BAA597;}
	.st27{fill:#D8B49C;}
	.st28{fill:#5898C1;}
	.st29{fill:#66B2E4;}
	.st30{fill:#FFFFFF;}
	.st31{fill:#B28E80;}
	.st32{fill:#DADADA;}
	.st33{fill:#C19D8B;}
	.st34{display:inline;fill:#E5C2AA;stroke:#000000;stroke-miterlimit:10;}
	.st35{display:inline;fill:#CEA893;}
	.st36{display:inline;fill:none;stroke:#000000;stroke-miterlimit:10;}
	.st37{display:inline;fill:#D8B49C;}
	.st38{display:inline;fill:#B28E80;}
	.st39{display:inline;fill:#F6F6F6;}
	.st40{display:inline;fill:#DADADA;}
	.st41{display:inline;fill:#5898C1;}
	.st42{display:inline;fill:#66B2E4;}
	.st43{display:inline;fill:#C19D8B;}
	.st44{display:inline;fill:none;stroke:#000000;stroke-width:0.5;stroke-miterlimit:10;}
	.st45{display:inline;stroke:#000000;stroke-miterlimit:10;}
	.st46{display:inline;fill:#0B0A0A;}
</style>
<g id="Шар_17">
	<rect y="0.48" class="st0" width="676.03" height="841.41"/>
</g>
<g id="Шар_2">
	<g id="колір" class="st1">
		<path class="st2" d="M438.16,634.57c-1.21-2.41-2.5-4.87-3.27-7.47c-0.39-0.38-0.75-0.78-1.06-1.23c-1.02-1.47-1.7-3.24-2.18-4.96
			c-0.12-0.44-0.23-0.89-0.35-1.33c-0.8-1.23-1.44-2.56-1.85-3.96c-0.24-0.57-0.47-1.14-0.69-1.71c-0.03-0.05-0.05-0.11-0.09-0.18
			c-0.17-0.35-0.33-0.71-0.49-1.06c-0.14-0.32-0.28-0.64-0.41-0.97c-2.69-5.2-5.17-10.53-7.26-15.98c-0.05-0.14-0.08-0.28-0.12-0.42
			c-0.75-1.25-1.46-2.53-2.05-3.9c-1.52-3.5-2.64-7.27-4.78-10.45c-0.93-1.38-1.31-2.73-1.28-4c-0.28-1.04-0.29-2.08-0.1-3.08
			c-0.16-0.66-0.37-1.31-0.48-1.92c-0.04-0.21-0.06-0.42-0.09-0.63c-2.12-1.42-3.92-3.28-5-5.62c-0.32-0.68-0.52-1.35-0.64-2.01
			c-0.07,0.11-0.15,0.21-0.21,0.31l-9.54-35.44c-0.32-1.19-0.77-2.24-1.29-3.19c6.61-2.89,12.36-7.75,16.05-14.42
			c7.56-13.67,14.85-28.07,19.5-43.12c3.88-4.23,7.36-8.64,10.33-12.96c11.26-16.37,17.4-38.71,15.59-58.52
			c-0.75-8.21-2.58-15.14-7.73-21.81c-2.33-3.02-5.18-5.86-8.4-8.14c0.02-1.14,0.03-2.29,0.02-3.44
			c-0.15-12.63-7.61-25.75-18.94-31.87c4.54-15.56-0.69-34.02-15.85-42.03c-8.17-4.31-17.81-5.55-26.66-3.64
			c-3.81-7.46-11.33-13.36-18.54-16.41c-4.29-2.25-8.91-3.29-13.87-3.1c-4.29,0.01-8.39,0.75-12.3,2.17
			c-2.21-4.38-4.73-8.57-7.6-12.51c-1.21-1.65-2.48-3.28-3.82-4.84c0.19-3.07,0.21-6.13-0.04-9.15c-1.3-15.51-5.77-29.04-16.85-40.4
			c-14.94-15.32-40.54-12.1-57.15-1.34c-2.36,1.53-4.57,3.15-6.65,4.87c-3.44,0.37-6.86,1.24-10.15,2.52
			c1.32-5.23-6.79-9.24-10.25-3.86c-0.75,1.17-1.6,2.27-2.49,3.31c0.21-2.21-0.77-3.99-2.22-5.14c-1.88-3.02-7.08-4.25-9.74-0.31
			c-0.2,0.3-0.4,0.6-0.61,0.89c-0.38,0.26-0.74,0.59-1.1,1c-1.36,1.57-2.66,3.18-3.92,4.82c-0.53,0.4-1.01,0.92-1.42,1.57
			c-0.19,0.3-0.37,0.59-0.56,0.89c-0.48,0.39-0.93,0.85-1.33,1.39c-0.92,1.23-1.81,2.49-2.68,3.75c-0.35,0.33-0.67,0.69-0.95,1.11
			c-0.06,0.1-0.11,0.2-0.17,0.29c-0.78,0.43-1.48,1.1-2.03,2.07l-0.98,1.69c-0.54,0.41-1.02,0.91-1.43,1.49
			c-2.5,3.55-4.97,7.12-7.41,10.72c-0.31,0.46-0.53,0.91-0.69,1.36c-0.07,0.1-0.14,0.19-0.2,0.29c-0.9,1.21-1.52,2.52-2.09,3.9
			c-0.01-0.01-0.02-0.02-0.02-0.03c-2.11-2.11-5.97-2.57-8.41-0.72c-0.23-0.07-0.47-0.12-0.71-0.16c0.03-2.36-1.37-4.85-3.29-5.97
			c-3.34-1.95-6.76-0.47-8.89,2.33c-3.86,5.09-6.66,10.95-10.77,15.85c-0.57,0.68-1,1.43-1.31,2.22c-0.13,0.17-0.25,0.34-0.36,0.53
			c-0.8,1.29-1.62,2.57-2.35,3.88c-0.06-0.02-0.12-0.05-0.18-0.06c-1.37-0.31-2.64,0.41-3.08,1.75c-0.22,0.67-0.38,1.36-0.52,2.06
			c-0.32,0.56-0.61,1.15-0.88,1.76c-0.68,1.56-1.31,3.14-1.87,4.75c-0.54,1.57-1,3.16-1.39,4.77c-0.97,2.03-1.87,4.1-2.65,6.23
			c-0.07,0.2-0.13,0.41-0.18,0.61c-1.74,3.04-2.92,6.36-4.14,9.65c-0.76,2.06-1.83,4.57-2.36,7.07c-0.24,0.4-0.46,0.84-0.62,1.33
			c-2.11,6.09-4.31,12.12-5.4,18.5c-0.09,0.51-0.1,1-0.09,1.48c-0.4,0.62-0.72,1.37-0.9,2.26c-1.25,6.18-2.82,12.73-2.93,19.09
			c-1.09,2.98-1.28,6.12-1.57,9.32c-0.05,0.55,0.01,1.09,0.15,1.62c-0.07,0.15-0.13,0.31-0.16,0.48
			c-1.19,6.32-2.15,13.17-0.67,19.45c-0.01,0.3-0.01,0.62,0.02,0.95c0.39,4.33,0.42,8.59,0.59,12.86c0.17,0.04,0.32,0.14,0.39,0.34
			c0.7,1.99,0.74,4.07,0.61,6.15c0,0.26,0,0.52,0,0.78c0.23,0.85,0.28,1.82-0.12,2.61c0,0.01-0.01,0.01-0.02,0.02
			c0.02,0.13,0.03,0.26,0.05,0.39c-0.02,0.21-0.03,0.42-0.02,0.63c0.03,2.55-0.33,4.86-0.7,7.36c-0.42,2.84-0.29,5.78-0.89,8.58
			c-0.11,0.53-0.14,1.04-0.14,1.55c-0.26,0.28-0.51,0.56-0.76,0.84c-0.1,0.29-0.21,0.57-0.35,0.85c-0.01,0.16-0.04,0.3-0.05,0.46
			c-0.9,0.18-1.6,0.88-1.96,1.79c-1.15,2.96-2.99,5.69-4.67,8.39c-1.6,2.58-2.98,5.24-4.29,7.97c-0.86,0-1.73,0.37-2.11,1.2
			c-2.18,4.77-5.39,9.03-7.27,13.93c-0.01,0.02-0.03,0.03-0.04,0.04c-1.96,2.27-3.79,4.62-5.49,7.08c-0.63,0.04-1.2,0.4-1.62,0.97
			c-0.06,0.09-0.13,0.17-0.19,0.26c-0.02,0.03-0.07,0.08-0.1,0.12c-0.19,0.23-0.38,0.45-0.58,0.67c-0.36,0.39-0.74,0.75-1.11,1.12
			c-0.9,0.88-1.66,1.86-2.39,2.89c-0.65,0.92-1.3,1.83-1.89,2.8c-0.62,1.02-1.11,2.09-1.6,3.17c-0.14,0.3-0.21,0.63-0.22,0.96
			c-0.3,0.6-0.52,1.19-0.69,1.77c-0.37-0.16-0.83-0.1-1.11,0.2c-0.37,0.39-0.61,0.85-0.77,1.34c-0.11,0.12-0.22,0.24-0.31,0.36
			c-0.17,0.11-0.3,0.28-0.37,0.53c-0.02,0.08-0.03,0.16-0.05,0.23c-0.07,0.17-0.14,0.34-0.2,0.5c-0.03,0.09-0.05,0.19-0.07,0.28
			c-0.16,0.23-0.29,0.47-0.37,0.75c-0.15,0.96-0.25,1.91-0.21,2.87c0.03,0.57,0.22,1.18,0.61,1.62c0.08,0.5,0.18,1,0.3,1.5
			c0.07,0.25,0.21,0.42,0.39,0.53c0.22,1.48,1.07,2.84,2.41,3.61c0.69,0.4,1.45-0.12,1.5-0.86c0.03-0.45,0.04-0.9,0.05-1.35
			c0.17,0.16,0.4,0.22,0.63,0.21c1.35,1.77,3.37,2.72,5.43,3.5c0.34,0.13,0.68,0.24,1.03,0.36c0.43,0.19,0.86,0.39,1.3,0.55
			c0.17,0.06,0.34,0.11,0.52,0.17c1.58,0.8,3.22,1.5,4.89,2.1c0.01,0.29,0.15,0.58,0.47,0.77c1.31,0.79,2.8,1.06,4.28,1.31
			c1.67,0.29,3.34,0.58,5.01,0.86c0.2,0.03,0.39,0.01,0.57-0.05c0.15,0.3,0.31,0.59,0.49,0.88c0.09,0.17,0.17,0.34,0.24,0.48
			c0.04,0.09,0.1,0.15,0.17,0.19c0.23,0.4,0.44,0.8,0.56,1.24c0.04,0.21,0.08,0.43,0.11,0.64c0.02,0.15,0.11,0.25,0.22,0.3
			c0.09,1.77,0.14,3.55,0.14,5.33c0,0.12,0.04,0.21,0.09,0.28c-0.08,0.55-0.17,1.11-0.27,1.66c-0.05,0.19-0.08,0.38-0.13,0.57
			c-0.02,0.08-0.03,0.15-0.02,0.21c-0.07,0.19-0.16,0.38-0.23,0.58c-0.05,0.05-0.1,0.12-0.13,0.2c-0.07,0.18-0.12,0.36-0.17,0.54
			c-0.25,0.63-0.49,1.26-0.76,1.88c-0.2,0.47,0.4,1.09,0.79,0.61c0.03-0.03,0.04-0.07,0.07-0.11c0,0,0.01,0,0.01,0.01
			c0.01-0.02,0.01-0.03,0.02-0.05c0.02-0.02,0.03-0.05,0.05-0.07c0.02,0.12,0.05,0.24,0.12,0.35c0.14,0.22,0.34,0.39,0.6,0.46
			c0.04,0.01,0.09,0.02,0.13,0.04c0.26,0.43,0.61,0.78,1.01,0.96c0.2,0.09,0.41,0.18,0.61,0.27c0.09,0.04,0.17,0.06,0.26,0.09
			c0.05,0.03,0.09,0.08,0.14,0.11c0.58,0.45,1.27,0.78,1.99,0.93c0.98,2.84,3.12,5.15,7.16,6.37c1.57,0.47,3.24,0.23,4.78,0.57
			c1.42,0.32,2.8,0.84,4.19,1.32c0.21-0.31,0.47-0.6,0.82-0.85c1.54-1.12,3.49-1.69,5.57-1.98c3.42,2.04,6.67,4.35,9.87,6.72
			c0.02,0.04,0.03,0.07,0.06,0.11c3.19,5.02,6.2,11.58,6.81,17.91c-0.3,0.99-0.54,2-0.7,3.02c-0.61,1.4-1.2,2.79-1.46,4.29
			c-0.07,0.04-0.13,0.09-0.17,0.17c-0.7,1.29-1.3,2.63-1.87,3.98c-0.12,0.03-0.23,0.09-0.3,0.2c-0.61,0.87-1.1,1.81-1.49,2.8
			c0,0.01-0.01,0.01-0.01,0.02c0,0,0,0,0,0c-0.02,0.04-0.04,0.08-0.05,0.12c-0.04,0.11-0.04,0.21-0.01,0.29
			c-1.16,1.95-2.55,3.79-3.59,5.81c-0.05,0.1-0.06,0.19-0.05,0.28c-1.23,1.33-2.4,2.73-3.5,4.17c-0.05,0.07-0.07,0.14-0.07,0.22
			c-0.14,0.17-0.28,0.33-0.42,0.5c-0.13-0.02-0.28,0.01-0.4,0.14c-1.28,1.3-2.57,2.61-3.85,3.91c-0.57,0.28-1.18,0.56-1.71,0.92
			c-2.16,0.67-4.37,1.23-6.42,1.91c-2.53,0.84-5.09,1.64-7.6,2.54c-2.12,0.76-4.15,1.71-5.77,3.32c-0.07,0.07-0.1,0.14-0.14,0.22
			c-0.9-0.41-1.96,0.79-1.12,1.6c0.55,0.53,1,1.13,1.37,1.77c-0.43,0.1-0.87,0.19-1.3,0.31c-0.63,0.17-1.26,0.4-1.82,0.73
			c-0.7,0.41-1.4,1.05-1.73,1.8c-0.28,0.64-0.44,1.23-0.25,1.93c0,0.01,0.01,0.02,0.01,0.02c-0.5,0.14-0.98,0.32-1.44,0.54
			c-0.98,0.02-1.78,0.65-2.22,1.53c-0.22,0.21-0.44,0.44-0.63,0.68c-0.84,1.03-1.44,2.18-1.91,3.4c-0.59,0.12-1.19,0.2-1.79,0.22
			c-0.71,0.02-1.21,0.34-1.53,0.79c0.3,0.07,0.6,0.24,0.82,0.56c0.52,0.75,1.01,1.52,1.38,2.33c-0.24,1.09-0.45,2.19-0.68,3.27
			c-1.74,8.01-3.81,16.07-7.23,23.55c-0.58,1.27-1.21,2.52-1.87,3.75c-2.01,1.68-3.93,3.46-5.75,5.34
			c-0.53-0.22-1.12-0.32-1.67-0.14c-0.58,0.19-1.23,0.57-1.49,1.15c-0.22,0.48-0.43,0.96-0.53,1.48c-0.1,0.52-0.18,1.08-0.15,1.62
			c0.02,0.31,0.06,0.63,0.11,0.95c-0.18,2.44-0.45,5.07,0.4,7.35c0.21,0.56,0.44,1.14,0.73,1.67c-0.03,0.37,0.04,0.76,0.23,1.12
			c0.54,1.01,1.12,2.05,1.94,2.77c0.28,1.3,1.11,2.45,2.48,3.11c0.33,0.16,0.67,0.29,1.02,0.4c1.31,0.83,2.91,1.21,4.46,1.23
			c0.45,0,0.89-0.03,1.33-0.08c4.14,1.92,8.5,2.84,12.95,3.09c6.5,1.24,13.12,1.23,19.27-1.99c0.72-0.38,1.13-1.14,1.2-1.93
			c1.28-0.02,2.55-0.08,3.82-0.22c0.03,0,0.06,0,0.1,0c0.93-0.08,1.86-0.15,2.79-0.23c3.43-0.6,6.9-1.86,10.18-2.58
			c4.15-0.92,8.27-2.3,12.43-3.16c2.01-0.77,3.95-1.68,5.78-2.82c0.05-0.03,0.08-0.06,0.12-0.09c0.38-0.13,0.77-0.27,1.14-0.41
			c0.2-0.07,0.4-0.15,0.59-0.23c1.63-0.56,3.24-1.19,4.78-1.96c0.69-0.35,1.34-0.74,1.98-1.16c1.58-0.66,3.12-1.41,4.57-2.32
			c1.72-0.73,3.44-1.44,5.11-2.3c1.65-0.85,3.25-1.8,4.79-2.84c0.9-0.6,4.98-2.69,1.6-1.62c1.62-0.51,3.14-1.34,4.47-2.41
			c0.36-0.12,0.72-0.28,1.09-0.51c3.06-1.92,6.12-3.85,9.18-5.77c2.21-0.49,4.07-2.04,5.99-3.29c3.35-2.18,6.69-4.37,10.03-6.57
			c0.32-0.21,0.6-0.45,0.85-0.7c2.34-1.5,4.67-3.03,7-4.56c0.31-0.12,0.63-0.29,0.95-0.5c0.56-0.33,1.11-0.65,1.67-0.98
			c0.24-0.09,0.46-0.21,0.67-0.33c5.29-1.17,10.55-1.42,13.74,4.24c0.2,0.35,0.42,0.65,0.66,0.91c-0.07,0.11-0.12,0.23-0.19,0.35
			c0.1,0.09,0.19,0.2,0.25,0.32c0.16,0.31,0.33,0.63,0.49,0.94c0.11,0.1,0.2,0.21,0.26,0.35c0.33,0.76,0.84,1.38,1.32,2.06
			c0.51,0.72,0.87,1.53,1.29,2.31c0.79,1.46,1.57,2.92,2.29,4.42c0.18,0.16,0.32,0.38,0.41,0.66c0.07,0.23,0.16,0.46,0.23,0.69
			c0.31,0.67,0.62,1.35,0.92,2.04c-0.74,0.26-1.37,0.74-1.75,1.42c-2.03-0.62-4.65,0.44-4.66,3.2c0,0.47,0.01,0.94,0.03,1.41
			c-2.83-0.37-5.54,2.76-3.82,5.21c-0.94,0.73-1.43,1.91-0.85,3.41c2.02,5.24,4.17,10.91,7.1,15.75c0.02,0.11,0.03,0.22,0.06,0.33
			c0.55,1.79,1.01,3.64,1.8,5.34c0.8,1.71,1.96,3.23,2.81,4.94c0.39,0.78,0.79,1.65,1.28,2.45c0,0.35,0.06,0.73,0.2,1.12
			c1.44,4.25,3.52,8.19,5.68,12.1c0.05,0.09,0.11,0.16,0.17,0.24c0.02,0.05,0.04,0.1,0.06,0.15c0.23,0.42,0.45,0.84,0.67,1.26
			c0.49,1.74,1.56,3.17,2.34,4.89c0.98,2.14,1.83,4.3,3.01,6.33c0.05,0.15,0.1,0.3,0.17,0.44c0.06,0.39,0.16,0.79,0.38,1.2
			c0.44,0.85,0.87,1.71,1.3,2.57c0.56,1.32,1.17,2.61,1.84,3.87c0.7,1.52,1.39,3.05,2.07,4.59c0.06,0.45,0.22,0.91,0.52,1.38
			c1.36,2.15,2.29,4.48,3.33,6.74c0.07,0.24,0.15,0.49,0.28,0.74c1.12,2.2,2.25,4.4,3.37,6.6c-0.03,0.95,0.32,1.92,0.98,2.71
			c0.6,0.71,0.78,2.19,1.14,3.05c0.62,1.51,1.33,2.98,2.07,4.43c0.86,1.68,3.23,2.17,4.79,1.26c0.84-0.49,1.36-1.25,1.58-2.09
			c2.04,0.76,4.61-0.24,4.86-2.3c1.39,0.09,2.88-0.61,3.59-1.73c3.13,2.62,8.13,3.02,11.61,0.99c0.48-0.28,0.91-0.6,1.32-0.93
			c2.02,0.38,4.15,0.32,6.29-0.27c5.02-1.38,9-5.69,10.27-10.67c0.16-0.2,0.32-0.39,0.47-0.59c3.18,0.71,6.59,0.49,9.28-0.69
			c5.12-2.25,8.49-7.04,8.85-12.42c4.34,2.19,9.34,2.51,13.9-0.16c3-1.75,5.26-4.68,6.39-7.98c10.67,0.93,19.5-6.31,23.14-15.92
			c2.06-1.55,3.58-3.75,4.06-6.61c0.24-1.45,0.47-2.91,0.68-4.36c4.9-0.22,9.7-2.87,11.58-7.86c0.93,0.07,1.83,0.05,2.67-0.08
			c5.22-0.79,9.18-4.25,10.81-9.31c0.37-1.14,0.7-2.28,1-3.43c1.07,0.21,2.22,0.25,3.45,0.09c9.32-1.24,18.56-2.09,23.63-9.98
			c0.05-0.03,0.1-0.06,0.14-0.09C440.35,637.21,438.93,636.11,438.16,634.57z M100.07,487.6c0.17-0.49,0.01-1.11-0.63-1.3
			c-1.91-0.58-3.81-1.19-5.71-1.81c-0.1-0.08-0.23-0.14-0.39-0.17c-0.16-0.03-0.31-0.07-0.47-0.11c-2.08-0.69-4.14-1.39-6.2-2.13
			c-0.15-0.05-0.3-0.07-0.43-0.06c0.25-0.37,0.28-0.89-0.09-1.27c-0.15-0.15-0.3-0.31-0.45-0.46c-0.35-0.36-0.77-0.36-1.1-0.18
			c-0.42-0.18-0.81-0.39-1.2-0.61c1.82,0.61,3.8,0.76,5.67,0.3c3.13,2.54,7.11,4.1,10.93,5.21c0.65,0.19,1.32,0.36,1.98,0.53
			c-0.26,0.76-0.28,1.62,0.05,2.4C101.37,487.82,100.72,487.71,100.07,487.6z"/>
	</g>
	<g id="XMLID_00000003784741447042837600000018087159358825556363_">
		<g>
			<path class="st3" d="M89.93,534.46c-0.47-5.59,3.59-9.38,3.92-9.67c2.31-2.08,4.85-2.7,6.03-2.91c-0.83-1.05-2.02-2.84-2.63-5.32
				c-0.25-1-0.82-3.46-0.02-6.39c0.3-1.08,0.75-2.67,2.2-4.03c0.82-0.76,1.64-1.19,2.22-1.43c2.03,0.58,5.03,1.46,8.62,2.64
				c4.38,1.44,6.04,2.14,11.37,4.1c2.01,0.73,8.45,3.07,18.05,6.66c5.78,2.16,8.67,3.27,8.91,4.92c0.25,1.63-1.36,3.45-6.92,7.01
				c-7.3,4.67-14.33,7.79-22.06,10.52c-10.05,3.56-14.73,4.12-19.4,3.71c-1.82-0.16-3.31-0.45-4.34-0.67
				c-0.86-0.5-1.86-1.1-2.96-2.23C90.35,538.7,89.99,535.2,89.93,534.46z"/>
			<path class="st3" d="M109.79,626.17c-4.49-0.24-10.99-1.1-17.17-5.27c-5.69-3.85-8.59-8.79-9.38-10.2
				c-2.57-4.65-3.23-8.81-3.42-10.38c-0.74-5.89,0.61-10.37,2.18-15.58c1.39-4.6,3.12-8.17,4.27-10.49
				c1.06-2.15,1.19-2.18,3.96-7.17c2.06-3.73,4.54-8.3,6.82-14.02c1.77-4.43,1.95-5.86,1.34-7.18c-0.55-1.19-1.41-1.66-2.49-2.29
				c1.03,0.22,2.53,0.51,4.34,0.67c4.67,0.41,9.35-0.15,19.4-3.71c7.73-2.73,14.76-5.85,22.06-10.52c5.56-3.56,7.17-5.38,6.92-7.01
				c-0.24-1.64-3.14-2.76-8.91-4.92c-9.61-3.59-16.05-5.93-18.05-6.66c-5.33-1.95-6.99-2.65-11.37-4.1
				c-3.59-1.18-6.59-2.06-8.62-2.64c3.67-8.64,2.81-12.48,1.21-14.36c-2.79-3.26-7.73-0.55-16.53-3.6
				c-2.74-0.96-9.98-3.48-12.39-8.93c-2.15-4.88,0.27-10.48,4.99-18.79c10.24-18.04,19.83-28.92,29.52-45.5
				c1.43-2.45,4.85-8.23,6.32-16.22c0.09-0.43,1.52-8.42,0.29-13.75c-0.08-0.33-0.69-2.9-1.42-5.96c-0.41-1.7-0.71-2.94-0.73-3
				c-4-17.81,4.5-53.66,4.5-53.66c1.28-5.36,5.01-20.49,12.15-39.1c0.84-2.18,1.49-3.94,2.54-6.38
				c4.63-10.73,9.99-22.96,20.64-36.73c7.37-9.51,14.66-16.46,20-21.04c4.58-3.16,11.18-7.31,19.61-11.28
				c4-1.88,11.65-5.26,14.79-5.95c18.27-4.03,39.13,47.64,78.58,97.45c30.82,38.9,61.2,59.61,83.77,71.39
				c15.73,8.22,24.77,10.57,34.59,20.31c26.3,26.09,23.94,71.09,17.46,106c-5.61,1.8-11.22,3.59-16.82,5.39
				c3.49,14.07,6.98,28.15,10.47,42.21c-5.92,0-11.85,0-17.77,0.01c4.04,9.44,8.15,18.94,12.35,28.49
				c8.97,20.41,18.06,40.41,27.21,59.99c-53.28,33.12-106.55,66.24-159.84,99.37c-22.09-44.45-32.08-67.04-36.86-79.38
				c-1.64-4.24-3.05-7.26-5.78-13.34c-10.21-22.68-15.46-34.07-22.26-37.05c-6.33-2.77-10.77,0.64-30.54,8.71
				C181.71,609.95,138.21,627.7,109.79,626.17z"/>
		</g>
	</g>
	<g id="Шар_12">
		<path class="st4" d="M132.25,250.62c0.83,1.98,1.61,3.62,2.24,4.87c0.12,0.24,0.97,1.9,2.41,3.85c1.14,1.54,1.54,1.76,1.87,1.71
			c0.72-0.09,0.94-1.38,1.63-3.1c0.77-1.92,1.57-3.16,3.16-5.63c2.46-3.82,3.45-3.75,3.45-4.99c0.01-3.54-7.95-7.85-11.15-5.67
			c-1.12,0.76-1.63,2.31-2.66,5.4C132.71,248.51,132.42,249.75,132.25,250.62z"/>
	</g>
	<g id="Шар_7">
		<path class="st5" d="M96.61,542.72c0.48,0.73,1.14,1.93,1.43,3.53c0.3,1.63,0.09,2.97-0.09,3.81c-0.86,4.19-3.21,8.47-3.98,9.88
			c-1.91,3.51-3.56,7.16-5.36,10.73c-1.49,2.95-2.74,6.02-4.37,8.89c0,0-2.24,3.95-2.79,6.63c-0.04,0.17-0.15,0.81-0.39,1.68
			c-0.13,0.5-0.2,0.68-0.31,1.13c-0.22,0.94-0.33,1.4-0.22,1.63c0.4,0.78,2.92,0.24,3.44,0.11c4.68-1.2,9.03-11.45,13.55-21.08
			c5.28-11.26,7.73-15.17,7.08-21.85c-0.25-2.51-0.85-4.55-1.35-5.94C101.05,542.15,98.83,542.43,96.61,542.72z"/>
		<path class="st5" d="M103.64,492.12c0.26-0.19,2.92-2.05,4.59-1.02c0.57,0.35,0.96,0.99,1.19,2.14
			c0.85,4.23-1.44,10.71-2.23,12.83c-1.73-0.34-3.46-0.67-5.19-1.01c0.82-1.68,1.88-4.42,2.05-7.93
			C104.13,495.16,103.92,493.45,103.64,492.12z"/>
	</g>
	<g id="Шар_5">
		<path class="st7" d="M155.19,243.9c-0.41,3.68,2.45,11.35,8.18,26.68c13.07,34.97,27.67,57.57,31.02,62.68
			c9.5,14.47,18.02,24.6,21.27,28.39c7.48,8.71,18.52,21.41,35.93,34.51c8.04,6.05,24.33,17.36,46.6,24.9
			c11,3.72,14.56,3.52,16.72,3.2c15.21-2.21,17.33-17.93,33.53-23.29c8.96-2.96,21.67-2.59,29.25,4.35
			c13.78,12.61,3.53,40.78,1.98,45.06c-6.61,18.18-19.65,28.8-26.38,33.51c21.86,15.51,34.81,14.17,41.4,11.94
			c32.36-10.94,36.13-85.33,28.68-133c-2.06-13.16-7.33-39.92-23.15-70.94c-15.56-30.51-42.6-83.55-97.05-100.27
			C238.68,171.79,158.97,210.07,155.19,243.9z"/>
	</g>
	<g id="Шар_6">
		<path class="st8" d="M142.56,254.59c-0.14-0.07-1.38,2.43-2.18,3.9c-2.07,3.8-6.75,12.64-11.5,24.63
			c-4.55,11.5-7.19,20.52-8.59,26.14c0,0-5.58,20.36-7.35,37.48c-0.26,2.54-0.45,5.37-0.81,10.69c-0.13,1.93-0.26,4.05-0.2,6.84
			c0.01,0.63,0.07,1.6,0.17,3.53c0.27,5.12,0.43,6.16,0.59,6.99c0.21,1.11,0.45,2,0.86,3.49c0.51,1.89,0.83,2.8,1.1,3.71
			c0,0,0.82,2.84,0.99,6.48c0.14,3.08-0.49,5.61-1.77,10.55c-1.08,4.18-1.63,6.26-2.71,8.87c-1.2,2.87-2.79,5.47-5.92,10.55
			c-1.35,2.19-1.27,1.99-4.35,6.84c-4.7,7.39-5.29,8.48-7.49,11.71c-2.57,3.77-2.09,2.74-4.72,6.59c-4.24,6.21-5.64,9.12-8.26,12.84
			c-0.34,0.48-1.37,1.94-2.58,4.04c-0.35,0.6-0.69,1.22-1.03,1.88c-1.09,2.08-2.47,5.16-3.51,9.22c2.03-0.53,3.48-0.84,4.6-1.03
			c0.39-0.07,1.06-0.18,1.73-0.67c0.77-0.57,1.09-1.34,1.18-1.54c4.71-10.65,11.99-19.98,17.82-30.06
			c4.33-7.49,4.6-6.97,10.32-16.86c3.41-5.9,5.82-10.18,7.79-16.03c1.23-3.66,2.91-8.79,2.86-15.4c-0.04-4.33-0.81-8.15-0.93-8.76
			c-0.64-3.11-1.19-4.11-1.82-6.77c-0.22-0.94-1.01-4.42-0.97-10.74c0.07-13.35,3.04-30.69,3.04-30.69
			c3.15-18.41,6.74-31.03,7.66-34.22c2.13-7.35,4.17-13.29,4.82-15.16c2.93-8.4,6.11-16.32,7.05-18.65
			C140.8,259.15,142.75,254.68,142.56,254.59z"/>
	</g>
	<path id="тінб_рови_00000061452524079287869240000012379580375860966544_" class="st7" d="M124.7,371.2
		c5.99,4.1,11.98,0.54,23.74,0.12c9.33-0.34,16.59,1.5,25.39,3.73c7.19,1.82,13.01,4,17.12,5.72c-2.83-2.44-6.99-5.66-12.48-8.68
		c-7.06-3.89-13.13-7.23-21.24-7.51c-6.01-0.2-7.66,1.45-18.26,1.4c-1.43-0.01-3.55-0.05-7.8-0.14c-4.7-0.1-8.56-0.2-11.19-0.28
		C120.75,367.12,122.17,369.46,124.7,371.2z"/>
	<g id="Шар_18">
		<path class="st7" d="M144.07,530.92c-4.72,3.77-7.08,5.66-11.02,8.01c-3.34,1.99-6.01,3.58-10,5.17
			c-4.53,1.8-8.16,2.57-10.57,3.07c-3.58,0.74-8.47,1.46-14.36,1.49c-0.03-0.8-0.05-1.61-0.08-2.41c-0.57-0.87-1.13-1.73-1.7-2.6
			c1.05,0.03,2.09,0.07,3.14,0.1c2.96-0.28,6.91-0.8,11.49-1.87c1.46-0.34,7.67-1.83,15.42-5.17c1.25-0.54,4.85-2.41,12.06-6.17
			c4.4-2.29,5.81-3.07,7.55-4.67c1.29-1.19,2.73-2.81,3.07-2.57c0.27,0.19-0.3,1.43-0.48,1.83
			C147.02,528.51,144.41,530.64,144.07,530.92z"/>
	</g>
	<path class="st9" d="M134.61,560.65c-0.07-0.41-0.26-0.81-0.55-1.07c-0.7-0.64-1.58-0.71-2.42-0.31c-0.44,0.21-0.87,0.46-1.27,0.73
		c-0.31,0.12-0.61,0.24-0.92,0.36c-0.81,0.31-1.62,0.61-2.44,0.9c-1.7,0.61-3.41,1.17-5.13,1.69c-1,0.3-1.74,1.41-1.4,2.46
		c0.33,1.01,1.39,1.72,2.46,1.4c1.92-0.58,3.82-1.21,5.7-1.89c0.56-0.2,1.11-0.42,1.67-0.63c0.12,0.02,0.24,0.03,0.36,0.01
		c1.14-0.14,2.18-0.42,3.15-1.06C134.64,562.7,135.08,561.57,134.61,560.65z"/>
	<path class="st9" d="M139.47,555.57c-0.42,0.24-0.79,0.46-1.34,0.85c-0.04,0.03-0.07,0.07-0.09,0.1c-0.03,0.01-0.07,0.02-0.1,0.03
		c-1.49,0.54-2.95,1.15-4.22,2.12c-0.13,0.03-0.25,0.07-0.37,0.13c-0.95,0.46-1.88,0.95-2.81,1.45c-0.35-0.04-0.72,0-1.09,0.15
		c-1.15,0.47-2.3,0.93-3.45,1.4c-0.51,0.21-1.01,0.41-1.52,0.62c-1.14,0.23-2.28,0.46-3.41,0.75c-0.39-0.07-0.81-0.03-1.23,0.12
		c-0.11,0.04-0.17,0.06-0.2,0.07c-0.12,0.03-0.23,0.07-0.35,0.1c-0.28,0.08-0.56,0.14-0.85,0.2c-0.5,0.1-1.01,0.18-1.51,0.25
		c-0.81,0.1-1.62,0.16-2.43,0.22c0.16-0.28,0.26-0.6,0.26-0.95c0-1.04-0.92-2.05-2-2c-2.43,0.12-4.85,0.32-7.26,0.63
		c-2.43,0.31-4.85,0.76-7.3,0.82c-0.02,0-0.04,0.01-0.06,0.01c-0.16-0.03-0.33-0.05-0.51-0.05c-0.63,0-1.13,0.19-1.51,0.5
		c-1.27,0.02-2.55,0.12-3.83,0.39c-0.36,0.07-0.66,0.27-0.9,0.53c-0.91,0.11-1.8,0.26-2.66,0.5c-0.03,0.05-0.06,0.1-0.1,0.14
		c-1.02,1.22-2.17,2.41-2.53,4.01c-0.44,1.93-0.26,4.1-0.27,6.07c0,0.08-0.03,0.14-0.05,0.22c0.86,1.06,0.95,2.51,1.46,3.76
		c0.76,1.9,2.27,3.47,3.18,5.32c0.05,0.11,0.09,0.22,0.11,0.33c2.77,0.16,5.71-0.42,8.31-0.87c1.9-0.33,3.79-0.76,5.65-1.3
		c-0.02-0.1-0.01-0.2,0-0.3c2.11-0.49,4.17-1.2,6.2-1.96c1.2-0.44,2.45-0.85,3.62-1.38c0.03,0.04,0.07,0.08,0.1,0.12
		c1.16-0.68,2.32-1.38,3.45-2.11c0.54-0.35,1.07-0.71,1.61-1.07c1.5-0.46,2.9-1.15,4.23-2c1.18-1.11,2.43-2.14,3.68-3.18
		c0.06-0.17,0.17-0.33,0.35-0.48c0.38-0.31,0.79-0.61,1.19-0.89c0.4-0.36,0.8-0.72,1.17-1.11c2.27-2.39,4.22-4.96,6.95-6.88
		c0.09-0.07,0.2-0.11,0.31-0.13c0.03-0.04,0.05-0.07,0.08-0.11c0-0.09,0-0.17,0.02-0.26c0.29-1.24,1.05-2.33,1.94-3.22
		c0.16-0.16,0.35-0.24,0.55-0.29c0.11-0.1,0.21-0.19,0.32-0.29C139.76,556.5,139.49,556.04,139.47,555.57z"/>
	<path class="st10" d="M147.26,523.15c-0.44-1.33-5.57-0.25-6.82-2.76c-0.14-0.28-0.19-0.52-0.21-0.63
		c-6.02-0.91-10.59-2.42-13.68-3.65c-7.43-2.95-11.15-4.43-12.19-5.27c-0.88-0.72-3.45-2.95-6.27-2.43
		c-0.46,0.08-0.83,0.23-1.07,0.33c-1.35-0.68-3.07-0.58-4.1,0.31c-1.13-0.77-2.68-0.87-3.85-0.31c-0.09,0.49-0.35,0.91-0.68,1.27
		c0.01,0.56-0.04,1.38-0.32,2.32c-0.32,1.04-0.81,1.8-1.16,2.28c0.05,0.46,0.13,0.96,0.25,1.49c0.15,0.68,0.34,1.29,0.54,1.82
		c0.66,1.2,1.32,2.4,1.99,3.6c0.79,0.25,1.57,0.51,2.36,0.76c-0.82-0.17-2.24-0.36-3.91,0.05c-2.48,0.6-3.97,2.13-4.66,2.85
		c-1.33,1.4-1.94,2.8-2.35,3.76c-0.9,2.13-1.14,4.09-1.17,5.52c3.37,0.62,12.15,2.04,21.75,0.94c5.91-0.68,11.19-2.21,13.07-2.82
		c1.55-0.5,3.06-1.08,3.06-1.08c2.29-0.88,3.5-1.49,4.42-1.88c4.11-1.75,5.37-0.29,9.26-1.74
		C144.76,526.66,147.62,524.24,147.26,523.15z"/>
	<path class="st11" d="M148.66,523.39c-0.36-0.68-2.26-0.19-7.46,0.7c-4.54,0.78-4.5,0.65-6.42,1.03c-6.1,1.18-8.81,2.93-14.75,4.87
		c-7.75,2.54-14.25,3.21-18.55,3.66c-4.66,0.49-8.55,0.56-11.28,0.53c-0.01,0.87,0.09,1.95,0.45,3.13c0.5,1.6,1.27,2.66,1.67,3.2
		c0.5,0.68,0.95,1.13,1.4,1.58c0.69,0.69,1.06,1.05,1.67,1.35c0.11,0.06,0.52,0.25,1.5,0.45c1.11,0.23,1.96,0.26,2.52,0.28
		c2.48,0.1,2.26,0.19,3.48,0.2c2,0.02,3.49-0.23,5.04-0.48c2.84-0.47,5.02-1.13,6.8-1.69c0.68-0.21,1.29-0.41,2.31-0.77
		c3.1-1.07,5.84-2.01,9.26-3.43c1.96-0.81,4.74-1.98,8.28-3.83c0.7-0.37,2.59-1.47,6.36-3.67c2.17-1.26,3.53-2.07,5.09-3.52
		C147.15,525.95,149.07,524.17,148.66,523.39z"/>
	<path class="st11" d="M148.62,523.02c-0.37-0.48-0.83-1-1.39-1.5c-1.97-1.75-4.15-2.39-5.47-2.64c-2.85-1.06-5.26-1.96-7.08-2.64
		c-6.77-2.54-13.67-5.15-13.67-5.15c-5.26-1.99-5.68-2.15-6.92-2.57c-4.3-1.44-7.9-2.33-10.31-2.87c-0.17-0.08-0.41-0.2-0.7-0.34
		c-1.21-0.58-1.3-0.6-1.44-0.6c-0.32,0.01-0.21,0.15-1.49,0.93c-0.27,0.16-0.6,0.35-0.95,0.72c-0.12,0.12-0.22,0.24-0.3,0.36
		c-0.18,0.1-0.47,0.3-0.73,0.64c-0.26,0.35-0.37,0.69-0.42,0.89c-0.41,1.78-0.57,3.09-0.57,3.09c-0.06,0.73-0.15,1.84-0.31,3.27
		c0.3-0.07,0.75-0.17,1.3-0.27c7.52-1.38,12.34,1.29,24.04,5.2c0,0,12.09,4.04,18.03,3.9c2.28-0.05,4.72-0.18,4.72-0.18
		C146.52,523.18,147.78,523.09,148.62,523.02z"/>
	<path class="st7" d="M320.41,476.93c-1.15,0.13-1.53,6.86-2.02,20.71c-0.14,3.83-0.24,6.99-0.3,9.16
		c-0.03,1.08-0.06,1.96-0.08,2.52c-0.01,0.22-0.01,0.44-0.02,0.66c-0.48,15.96-71.68,58.78-71.68,58.78
		c-13.65,8.21-17.95,10.81-25.38,14.66c-6.58,3.42-17.61,8.86-38.91,17.11c0,0-51.94,20.09-77.07,18.23
		c-2.96-0.22-9.25-0.76-15.62-4.8c-4.01-2.55-6.6-5.57-8.05-7.5c0.61,1.66,1.54,3.72,2.95,5.9c1.34,2.06,2.75,3.67,3.95,4.88
		c1.48,1.22,2.95,2.45,4.43,3.67c1.34,0.75,2.67,1.49,4.01,2.24c2.09,0.7,4.19,1.39,6.28,2.09c2.81,0.33,5.62,0.67,8.43,1
		c2.2,0.06,4.59,0.02,7.16-0.17c3.48-0.25,6.64-0.73,9.42-1.3c4.46-0.78,10.08-1.88,16.53-3.42c4.98-1.19,12.25-2.95,21.36-6.01
		c5.72-1.93,7.18-2.69,21.39-7.74c1.8-0.64,3.74-1.32,6.14-2.15c5.52-1.91,10.12-3.43,13.41-4.49c1.04-0.21,2.85-0.43,4.95,0.14
		c1.44,0.39,2.83,1.1,4.39,2.43c1.55,1.31,3.29,3.24,7.12,10.96c1.45,2.92,1.58,3.41,4.27,9c0.94,1.94,1.72,3.53,2.25,4.61
		c82.26-71.96,103.33-97.27,102.25-104.14c-0.62-3.95-0.68-7.2-0.8-13.7c-0.17-8.89,0.46-10.67,1.65-11.73
		c4.26-3.81,13.96,1.14,15.14,1.76c-1.88,29.99-0.52,54.45,1.19,71.74c1.84,18.56,4.67,34.72,8.93,59.01
		c3.24,18.48,6.27,33.77,8.48,44.46c23.4-14.54,46.8-29.07,70.19-43.61c-5.05-11.05-10.1-22.1-15.15-33.15
		c-3.07-6.78-6.13-13.57-9.2-20.35c51.95-97.73,65.29-181.18,34.77-205.2c-11.22-8.83-38.82-17.86-64.31-7.6
		c-16.26,6.54-25.83,18.57-30.29,25.17c8.42-8.2,19.37-11.54,27.72-7.96c7.32,3.13,10.59,10.7,12.45,15.01
		c1.62,3.74,3.91,10.69,2.93,21.78c-2.45,27.58-22.15,46.4-32.21,56.01c-5.56,5.31-13.13,11.93-23.8,13.73
		c-3.31,0.56-9.41,1.5-13.72-1.95C321.28,483.6,321.41,476.81,320.41,476.93z"/>
	<g id="Шар_11">
		<path class="st7" d="M140.66,258.14c2.66,8.07,6.62,19.89,11.65,34.09c11.93,33.7,17.9,50.55,25.27,66.39
			c17.33,37.23,32.81,70.51,64.32,79.94c15.47,4.63,31.08,2.4,36.3,1.61c21.3-3.24,36.36-13.2,42.32-17.23
			c2.77-1.87,4.98-3.56,6.48-4.74c-6.1,1.82-13.88,3.25-17.23-0.49c-5.37-6.01,6.13-19.24,2.04-25.3
			c-7.37-10.9-50.21,23.8-80.37,10.94c-37.29-15.9-44.31-99.86-44.31-99.87c0,0-29.93-59.97-38.31-56.27
			c-0.5,0.22-1.04,0.54-1.84,1.11C143.02,251.18,141.39,255.41,140.66,258.14z"/>
	</g>
	<path class="st9" d="M145,543.47c-0.57,0.93-1.11,1.88-1.64,2.83c-0.31-0.05-0.63,0.03-0.86,0.26c-1.68,1.58-3.35,3.21-4.58,5.18
		c-0.37,0.22-0.73,0.44-1.1,0.65c-0.54,0.25-1.05,0.55-1.52,0.9c-0.22,0.16-0.38,0.33-0.46,0.6c-0.02,0.08-0.02,0.17-0.02,0.26
		c-2.28,1.8-4.94,3.01-7.69,3.91c-0.39-0.02-0.81,0.05-1.19,0.23c-0.38,0.18-0.77,0.33-1.16,0.47c-3.04,0.85-6.13,1.54-9.21,2.23
		c-0.72,0.15-1.44,0.31-2.14,0.49c-2.5,0.64-1.44,4.44,1.06,3.86c1.49-0.35,3-0.67,4.52-1.01c1.77-0.37,3.53-0.74,5.27-1.25
		c4.63-1.22,9.11-2.86,12.92-5.77c0.04,0.04,0.07,0.08,0.12,0.11c0.47,0.25,0.95,0.11,1.28-0.26c0.31-0.02,0.59-0.18,0.8-0.47
		c0.27-0.37,0.48-0.77,0.68-1.18c0.06-0.06,0.12-0.11,0.17-0.19c1.52-2.19,2.93-4.45,4.23-6.78c0.23-0.41,0.14-0.81-0.1-1.09
		c0.27-0.61,0.54-1.22,0.81-1.83c0.08-0.17,0.07-0.36-0.01-0.51c0.23-0.38,0.45-0.77,0.68-1.15
		C146.21,543.42,145.34,542.92,145,543.47z"/>
	<path class="st12" d="M449.75,623.75c24.3,38.16,49.13,81.92,72.48,131.31c14.24,30.11,26.44,59.18,36.94,86.83
		c-105.68,0-211.36,0-317.04,0c5.62-16.2,10.53-29.15,13.89-37.78c9.91-25.47,16.65-39.92,19.84-62.93c0.59-4.22,0.9-7.71,1.07-9.95
		C334.54,695.41,392.14,659.58,449.75,623.75z"/>
	<path class="st13" d="M452.85,622.71c9.81,18.34,23.83,44.72,40.54,76.83c12.83,24.65,19.37,37.25,25.93,50.73
		c10.55,21.71,24.61,52.5,39.25,91.14c-5,0-9.99-0.01-14.99-0.01c-19.55-66.61-44.22-85.64-63.58-90.33
		c-33.25-8.05-63.73,23.06-85.58,7.6c-18.25-12.91-6.69-41.45-23.26-54c-11.21-8.48-35.42-9.75-93.82,26.87
		c34.46-21.5,68.96-42.95,103.48-64.33C404.8,652.35,428.81,637.52,452.85,622.71z"/>
	<path class="st4" d="M187.29,376.92c-0.73-0.75-1.39-1.6-2.1-2.39c-0.86-0.95-1.69-1.88-2.38-2.94c-1.57-1.39-3.18-2.72-4.82-4.04
		c-1.59-1.27-3.18-2.55-4.92-3.57c-1.53-0.9-3.1-1.71-4.59-2.69c-0.29-0.12-0.59-0.24-0.88-0.37c-0.29-0.13-0.61-0.19-0.93-0.2
		c-3.87-1.96-7.92-3.46-12.08-4.49c-0.05-0.01-0.1-0.01-0.15-0.02c-0.13-0.12-0.28-0.22-0.43-0.32c-3.71-0.43-7.45-0.77-11.16-0.98
		c-2.16-0.12-4.34-0.11-6.5-0.12c-1.52-0.01-3.11,0.05-4.6-0.31c-0.2,0.11-0.4,0.09-0.57,0.01c-0.42,0.04-0.84,0.08-1.26,0.13
		c-0.83,0.11-1.71,0.22-2.59,0.37c-0.18-0.03-0.35-0.04-0.53-0.07l0,0c-0.01,0-0.01,0-0.02,0c-0.68-0.09-1.36-0.16-2.05-0.16
		c-0.96,0-1.9,0.15-2.69,0.68c-0.59,0.14-1.15,0.36-1.63,0.75c-0.41,0.2-0.8,0.46-1.14,0.82c-0.06,0.06-0.08,0.14-0.11,0.21
		c-0.15,0.04-0.31,0.06-0.46,0.1c-0.03,0.22-0.06,0.44-0.08,0.66c-0.01,0.09-0.01,0.18-0.01,0.27c0,0.03,0,0.07,0,0.1
		c0,0.01,0,0.02,0,0.06c0,0.09,0,0.18,0.01,0.26l-0.17,0.45c-0.07,0.3-0.1,0.61-0.09,0.91c0.01,0.14,0.01,0.28,0,0.42
		c-0.05,0.33-0.09,0.65-0.1,0.98c-0.01,0.25,0.03,0.51,0.06,0.76c0.39,1.51,1.29,3.11,2.45,4.05c0.32,0.26,0.68,0.49,1.04,0.7
		c0.05,0.02,0.11,0.05,0.16,0.07c0.11,0.04,0.21,0.08,0.32,0.1c0.07,0.01,0.15,0.03,0.23,0.04c1.17,0.34,2.33,0.51,3.53,0.68
		c0.93,0.13,1.86,0.31,2.7,0.73c0.95-0.01,1.9-0.09,2.87-0.23c0.98-0.13,1.96-0.22,2.94-0.3c0.82-0.29,1.66-0.48,2.52-0.55
		c0.1-0.07,0.18-0.16,0.26-0.25c1.5-0.28,3.01-0.56,4.51-0.84c0.17,0.02,0.36,0.01,0.56-0.02c0.48-0.07,0.96-0.1,1.43-0.15
		c0.26,0.07,0.53,0.12,0.83,0.1c0.84-0.06,1.67-0.17,2.5-0.31c1.66-0.03,3.32,0.04,4.97,0.2c2.8,0.26,5.63,0.91,8.45,0.98
		c2.01,0.69,4.04,1.29,6.11,1.77c0.37,0.09,0.74,0.08,1.11,0.02c0.89,0.23,1.76,0.48,2.61,0.83c0.55,0.22,1.09,0.46,1.64,0.66
		c0.38,0.45,0.86,0.79,1.43,0.87c0.61,0.09,1.22,0.2,1.81,0.36c0.29,0.11,0.58,0.25,0.85,0.42c0.17,0.11,0.35,0.2,0.55,0.24
		c0.19,0.08,0.38,0.11,0.58,0.13c0.08,0.1,0.15,0.2,0.24,0.28c0.16,0.16,0.35,0.29,0.54,0.42c0.03,0,0.06-0.01,0.1-0.01
		c1.29,0.26,2.33,0.99,3.45,1.68c1.28,0.79,2.66,1.43,3.98,2.14c0.41,0.22,0.81,0.45,1.21,0.68c0.06,0.02,0.12,0.04,0.18,0.06
		C186.92,377.45,187.06,377.1,187.29,376.92z"/>
	<g id="XMLID_00000005230562921906685430000001067101006035436433_">
		<g>
			<path class="st7" d="M119.17,475.96c-0.58,2.68-2.33,4.98-4.44,6.73c-1.55,1.28-3.35,2.33-7.02,4.24
				c-2.19,1.15-4.06,2.04-5.38,2.65c-0.46-0.32-0.87-0.53-1.2-0.68c-0.11-0.04-0.59-0.25-1.26-0.4c-0.26-0.05-0.54-0.1-0.86-0.14
				c-0.27-0.03-0.54-0.05-0.78-0.06c-0.59-0.03-2.43-0.11-4.04-0.22c-0.43-0.02-0.93-0.07-1.56-0.15c-0.57-0.06-1.04-0.13-1.36-0.19
				c-0.34-0.05-0.81-0.12-1.35-0.22c-0.62-0.13-1.14-0.26-1.9-0.48c-0.92-0.28-1.81-0.53-2.99-0.97c-0.38-0.14-2.03-0.77-3.88-1.71
				c-0.66-0.33-1.14-0.6-1.6-0.89c-0.52-0.33-0.94-0.63-1.26-0.85c-0.54-0.37-1.17-0.85-1.81-1.49c-0.69-0.69-1.21-1.36-1.59-1.93
				c-0.34-0.53-0.72-1.25-1.01-2.16c-0.22-0.67-0.34-1.29-0.39-1.8c-0.06-0.52-0.07-0.93-0.07-1.13c0-0.37,0.04-0.71,0.07-0.98
				c3.98-0.43,5.46-0.57,5.79-0.6c0.02,0,0.05-0.01,0.13,0c0.2-0.02,0.58-0.04,1.05-0.08c0.82-0.07,1.39-0.12,1.43-0.12
				c1.45-0.12,5.5,4.55,7.66,6.38c3.6,3.05,8.11,3.38,12.41,3.69c3.46,0.25,6-0.17,7.97-0.49c4.02-0.66,5.39-1.54,5.94-1.93
				C117.68,478.69,118.66,477.04,119.17,475.96z"/>
		</g>
	</g>
	<path class="st14" d="M99.89,521.89c7.58,1.02,16.02,1.78,25.19,2.03c8.51,0.23,16.41-0.01,23.58-0.53"/>
	<g id="XMLID_00000067959059684289773050000003789825579321286548_">
		<g>
			<path class="st14" d="M95.87,543.63c0.52,0.35,0.97,0.73,1.38,1.39c1.56,2.5,0.5,5.85-0.4,8.34c-3.43,9.44-7.54,14.54-11.4,22.52
				c-1.02,2.11-2.88,6.24-4.23,11.71c-0.05,0.21-0.09,0.37-0.13,0.52c-0.6,2.62-1.73,7.4-1.28,12.22c0.45,4.92,2.38,8.5,3.42,10.38
				c0.84,1.51,3.55,6.08,8.77,9.78c6.47,4.59,13.22,5.26,16.54,5.58c12.3,1.22,39.28-3.94,73.16-16.12
				c20.95-7.94,25.89-11.16,32.17-8.02c2.75,1.37,6.38,4.28,20.63,36.36c2.91,6.57,4.43,9.84,5.78,13.34
				c4.79,12.35,14.77,34.94,36.86,79.38c53.28-33.13,106.55-66.25,159.84-99.37c-9.15-19.57-18.24-39.57-27.21-59.99
				c-4.2-9.54-8.31-19.05-12.35-28.49c5.92-0.01,11.84-0.01,17.77-0.01c-3.49-14.06-6.98-28.14-10.47-42.21
				c5.6-1.79,11.21-3.59,16.82-5.39c6.49-34.91,8.84-79.91-17.46-106c-9.82-9.74-18.86-12.09-34.59-20.31
				c-22.57-11.78-52.95-32.49-83.77-71.39c-39.45-49.8-60.31-101.48-78.58-97.45c-3.13,0.69-10.79,4.07-14.79,5.95
				c-8.43,3.97-15.03,8.12-19.61,11.28c-5.34,4.58-12.63,11.53-20,21.04c-10.65,13.77-16,25.99-20.64,36.73
				c-1.05,2.44-1.7,4.2-2.54,6.38c-7.15,18.61-10.88,33.74-12.15,39.1c0,0-8.5,35.85-4.5,53.66c0.02,0.06,0.32,1.3,0.73,3
				c0.73,3.06,1.35,5.63,1.42,5.96c1.23,5.32-0.2,13.31-0.29,13.75c-1.47,7.99-4.89,13.77-6.32,16.22
				c-9.69,16.58-19.28,27.46-29.52,45.5c-4.73,8.32-7.15,13.91-4.99,18.79c2.41,5.46,9.66,7.98,12.39,8.93
				c8.8,3.06,13.74,0.35,16.53,3.6c1.61,1.88,2.46,5.72-1.21,14.36c-0.58,0.24-1.41,0.67-2.22,1.43c-1.45,1.36-1.9,2.95-2.2,4.03
				c-0.8,2.93-0.23,5.39,0.02,6.39c0.61,2.48,1.8,4.28,2.63,5.32c-1.18,0.2-3.72,0.82-6.03,2.91c-0.33,0.3-4.39,4.08-3.92,9.67
				c0.04,0.45,0.37,4,3.01,6.89C94.11,542.64,95.07,543.09,95.87,543.63z"/>
			<path class="st14" d="M101.66,504.71c2.03,0.58,5.03,1.46,8.62,2.64c4.38,1.44,6.04,2.14,11.37,4.1
				c2.01,0.73,8.45,3.07,18.05,6.66c5.78,2.16,8.67,3.27,8.91,4.92c0.25,1.63-1.36,3.45-6.92,7.01c-7.3,4.67-14.33,7.79-22.06,10.52
				c-10.05,3.56-14.73,4.12-19.4,3.71c-1.82-0.16-3.31-0.45-4.34-0.67"/>
		</g>
	</g>
	<g id="Шар_14">
	</g>
	<g id="XMLID_00000018213173530401979660000018305713286105257109_">
		<g>
			<path class="st14" d="M126.03,368.24c-2.38-0.38-4.46-0.77-6.03-2.69c-1.82-2.21-2.52-5.91-1.25-8.2
				c1.63-2.96,6.15-2.68,10.37-2.72c15.11-0.15,22.68-0.23,32.12,3.43c12.3,4.78,19.82,12.18,21.4,13.78
				c2.65,2.66,4.64,5.18,5.99,7.02c-5.51-3.47-10.46-5.71-14.25-7.19c-2.17-0.84-14.83-5.68-27.94-5.2
				c-1.64,0.06-2.91,0.15-3.44,0.2C133.85,367.48,131.34,369.13,126.03,368.24z"/>
		</g>
	</g>
	<g id="Шар_9">
		<g id="Шар_10" class="st1">
			<path class="st15" d="M596.29,271.4c1.51-10.68,2.91-21.21,1.92-31.99c-1.23-13.33-3.19-28.26-10.09-40.1
				c-10.24-17.57-29.68-25.11-48.17-21.21c-15.02-9.46-37.12-8.82-49.58,5.18c-9.46,10.63-16.4,22.96-23.77,35.03
				c-1.75,2.86-3.5,5.72-5.24,8.58c-3.06-13.97-10.23-27.01-20.9-36.71c-5.87-5.34-12.51-10.48-19.8-13.77
				c-7.09-3.21-13.38-5.34-20.04-6.88c-4.49-1.88-9.06-3.49-13.64-4.81c-31.44-9.09-66.06-4.93-96.64,5.38
				c-14.26,4.81-24.79,15.66-28,29.37c-4.99,0.79-9.76,1.5-13.89,1.91c-4.69,0.47-9.4,0.71-14.12,0.64
				c-2.47-0.03-4.94-0.15-7.4-0.33c-1.23-0.09-2.46-0.21-3.69-0.34c-2.12-0.24-2.45-0.28-0.99-0.12
				c-8.76-1.29-18.7,2.17-20.91,11.87c-1.84,8.07,2.47,19.52,11.87,20.91c11.77,1.74,23.38,2.56,35.25,1.36
				c4.46-0.45,8.9-1.02,13.34-1.67c0.11,1.06,0.24,2.11,0.41,3.16c-4.86,6.11-8.45,13.18-10.76,20.66
				c-5.34,17.24-1.44,38.54,8.62,53.37c9.24,13.63,20.77,22.43,33.75,32.26c1.19,4.37,2.89,8.64,5.17,12.73
				c-1.1,3.07-1.31,6.5-0.37,9.97c3.26,12.09,4.22,26.91,2.45,37.92c-1.05,6.51,0.72,13.7,5.66,17.85c-0.61,0.98-0.95,2.11-0.9,3.29
				c0.03,0.6,0.13,1.19,0.3,1.74c-0.07,3.87,3.15,8.07,8.11,6.95c7.82-1.75,16.1-4.94,22.19-10.39c3.93-1.7,7.58-5.19,10.07-8.24
				c4.96-6.06,9.3-13.13,16.01-17.5c0.33-0.21,0.62-0.45,0.89-0.7c0.4-0.18,0.77-0.4,1.12-0.63c0.04-0.01,0.08-0.01,0.12-0.02
				c3.01-0.71,5.58-1.93,8.42-2.94c2.8-0.99,6.16-1.06,9.08-1.2c3.04-0.15,6.22-0.36,9.27-0.17c2.18,0.87,4.38,1.46,6.68,1.68
				c2.5,1.66,5.5,2.56,7.94,4.41c2.53,1.91,4.1,4.74,6.52,6.88c0.07,0.17,0.14,0.33,0.23,0.5c0.78,1.5,1.46,2.99,2.07,4.52
				c0.07,0.38,0.16,0.77,0.29,1.18c0.37,1.09,0.7,2.17,1,3.27c-0.01,0.43,0,0.88,0.07,1.34c0.5,2.55,0.93,5.09,1.3,7.65
				c-0.16,0.63-0.22,1.34-0.16,2.11c0.54,7.47,0.04,14.92-0.43,22.38c-0.28,0.67-0.47,1.41-0.53,2.25
				c-0.7,9.81-1.35,19.62-1.66,29.45c-0.09,0.25-0.16,0.51-0.2,0.78c-0.65,4.37-0.68,8.69-0.64,13.03
				c-1.04,7.51-1.56,14.99-1.48,22.49c-0.12,0.46-0.2,0.95-0.23,1.48c-0.46,8.08-1.82,16.75-1.01,24.93
				c-0.31,0.81-0.44,1.77-0.31,2.88c0.84,7.31,0.31,14.88,0.08,22.22c-0.03,0.8,0.12,1.54,0.38,2.22c0.25,5.21,0.4,11.26,3.03,15.92
				c2.68,4.76,7.51,4.13,11.87,2.4c4.95-1.96,9.62-4.79,13.85-8c2.18-1.65,4.16-3.56,6.24-5.33c0.58-0.49,1.14-1.09,1.71-1.71
				c1.15-0.44,2.05-1.19,2.69-2.12c0.51-0.42,0.95-0.89,1.29-1.4c0.11-0.1,0.21-0.19,0.32-0.28c0.33-0.3,0.6-0.62,0.84-0.95
				c0.59-0.29,1.16-0.66,1.7-1.1c0.33-0.27,0.67-0.55,1-0.82c0.64-0.53,1.1-1.19,1.41-1.92c0.67-0.55,2.09-1.68,2.89-2.77
				c1.43-1.92,2.33-4.15,3.65-6.17c0.69-0.5,1.28-1.12,1.62-1.87c0.08-0.17,0.17-0.33,0.25-0.5c0.22-0.29,0.44-0.58,0.64-0.9
				c0.35-0.54,0.61-1.14,0.84-1.74c0.06-0.08,0.13-0.16,0.19-0.24c2.79-3.85,5.54-7.25,7.67-11.54c2.17-4.38,4.65-8.57,7.37-12.63
				c0.09-0.14,0.17-0.28,0.25-0.43c0.43-0.54,0.74-1.09,0.97-1.66c0.44-0.4,0.86-0.88,1.22-1.45c2.54-3.99,4.32-8.31,6.69-12.38
				c1.76-3.03,3.71-5.63,4.81-8.77c1.13-1.89,2.27-3.79,3.4-5.68c1.97-3.29,0.69-6.44-1.7-8.21c0.09-0.32,0.15-0.63,0.2-0.95
				c1.19-2.23,1.86-4.5,1.64-6.74c0.12-0.12,0.25-0.24,0.36-0.38c4-4.57,8.62-9.38,11.1-15c1.48-3.36,0.11-6.52-2.17-8.34
				c3.46-3.45,7.26-7.64,8.95-11.63c5.93,0.9,12.12,0.65,16.94-0.91c10.34-3.34,17.72-9.42,23.91-18.38
				c7.25-10.51,8.81-24,7.16-36.3c-1.04-7.77-3.49-14.51-6.44-21.45c0.26-0.81,0.54-1.62,0.84-2.43
				C574.21,334.3,591.55,304.89,596.29,271.4z"/>
		</g>
		<path class="st16" d="M185.78,226.68c-0.03,1.19-0.1,4.12,1.97,6.66c1.47,1.8,3.32,2.55,4.27,2.86c1.08-1.36,2.81-3.53,5-6.14
			c14.31-17.09,36.3-42.84,70.77-59.17c9.72-4.6,17.46-7.05,22.04-8.48c45.09-14.06,82.85-6.75,94.04-4.24
			c23.65,5.3,40.32,14.13,46.26,17.46c21.04,11.77,35.39,25.8,44.06,35.68c0.74-1.2,1.84-3.02,3.12-5.25
			c5.69-9.86,8.07-15.68,10-19.34c7.11-13.54,20.04-20.6,22.23-21.76c4.2-2.22,14.15-7.49,26.56-5.92
			c21.14,2.68,32.82,22.34,36.19,28.08c9.31,15.84,9.3,31.61,8.76,39.04c2.71-14.94,5.41-29.89,8.12-44.83
			c-0.88-1.55-2.15-3.69-3.83-6.13c-2.61-3.78-9.44-13.5-21.04-20.97c-5.29-3.41-17.88-11.52-35.2-10.6
			c-14.01,0.75-24.01,7.02-28.15,9.68c-3.22,2.07-8.55,5.57-13.5,11.81c-2.97,3.75-4.07,6.3-9.37,15.21
			c-3.11,5.22-5.73,9.4-7.42,12.05c-4.02-3.59-9.72-8.4-16.92-13.59c-5.49-3.96-28.53-20.15-56.63-28.97
			c-47.26-14.83-90.74-3.12-107.77,1.69c0,0-37.19,10.51-78.11,41.63c-6.67,5.07-10.68,9.69-17.85,17.94c0,0-3.43,3.95-6.26,10.32
			C186.45,222.9,185.83,224.54,185.78,226.68z"/>
		<path class="st16" d="M196.93,227.76c0.38,0.07,0.83,0.27,1.31,0.78c2.16,0.72,5.45,1.72,9.55,2.48
			c8.44,1.58,15.07,1.23,19.19,0.99c21.21-1.25,43.15-3.38,46.83-3.74c-2.3,2.09-5.35,5.18-8.34,9.37
			c-11.04,15.49-15.97,38.59-8.82,57.07c1.59,4.11,4.35,7.98,4.73,8.57c3.88,5.93,7.84,9.87,15,16.5
			c9.17,8.49,11.74,10.43,14.06,12.69c10.04,9.76,12.45,22.37,15.34,39.57c2.7,16.06,0.64,28.04,6.22,54.24
			c0.67,3.16,1.29,5.75,1.72,7.47c-1.2,0.27-4.45,0.84-8.01-0.68c-0.7-0.3-2.8-1.28-4.66-3.45c-2.04-2.38-2.62-4.83-3.37-8
			c-0.39-1.63-0.8-3.93-0.88-6.75c-0.43-3.69-1.08-9.1-1.88-15.67c-1.43-11.75-1.98-15.74-2.33-18.28c-1.33-9.52-2-14.28-3.07-18.52
			c-2.39-9.48-5.13-14.77-6.65-17.44c-1.63-2.85-3.06-5.33-5.74-7.98c-2.14-2.12-3.04-2.33-8.02-6.4c-2.99-2.44-4.49-3.66-6.1-5.35
			c-2.55-2.66-4.02-4.92-6.06-8.01c-1.54-2.35-3.66-5.61-5.8-10.28c-0.77-1.69-2.42-5.47-3.84-10.57c-2.4-8.63-2.6-15.49-2.63-17.18
			c-0.04-2.07-0.03-6.77,1.01-12.69c0.37-2.12,2.19-11.9,8.45-23.13c0.7-1.25,1.3-2.26,1.71-2.91c-1.92,0.13-4.99,0.33-8.77,0.52
			c-12.92,0.64-22.26,1.06-33.44-0.03c-5.6-0.54-9.58-0.73-14.42-2.15c-3.83-1.13-6.87-2.5-8.93-3.54
			C192.24,230.41,194.9,227.4,196.93,227.76z"/>
	</g>
	<g id="XMLID_00000109712798115248983260000018358127283117718447_">
		<g>
			<path class="st4" d="M537.34,590.88c0.16,26.22,0.04,47.52-12.09,69.96c-1.69,3.13-4.44,7.81-9.75,14.7
				c-41.34,53.65-109.41,75.36-116.46,68.83c-2.72-2.52-3.52-5.71-3.75-6.63c0,0-53.29-212.1-31.98-244.94
				c0.18-0.29,1.97-3.01,4.24-6.8c8.61-14.38,17.25-28.81,19.65-44.43c1.2-7.79,4.63-30.22-9.87-42.62
				c-9.95-8.51-26.67-9.44-38.69-4.15c-10.09,4.44-11.36,10.83-17.56,14.61c-19.8,12.09-62.72-18.92-87.83-42.99
				c-20.91-20.04-57.29-61.94-76.82-136.27c24.94-23.23,49.34-35.56,65.67-42.2c66.83-27.16,127.55-11.45,150.89-5.05
				c16.92,4.64,42.03,11.78,68.59,31.77c6.11,4.6,26.16,20.31,44.76,49.09c10.85,16.79,24.8,43.59,37.37,121.12
				c3.82,23.6,10.03,68.11,12.65,138.38C536.36,523.26,536.97,531.49,537.34,590.88z"/>
		</g>
	</g>
	<path class="st20" d="M196.24,241c-1.47,7.13,2.42,15.71,10.26,32.59c9.5,20.45,18.52,39.87,38.4,64
		c22.8,27.68,66.81,70.04,88.04,60.51c2.28-1.02,7.77-4.29,16.33-5.6c4.81-0.74,13.03-1.88,21.69,2.4
		c2.38,1.17,7.91,4.3,12.01,10.63c2.94,4.54,3.83,8.68,4.56,12.14c1.36,6.39,0.99,11.39,0.64,16.17c-0.17,2.3-0.72,8.34-2.89,15.98
		c-0.48,1.69-0.98,3.24-1.49,4.71c-1.04,2.95-2.55,6.83-4.86,11.32c-3.25,6.34-6.68,10.14-11.96,19.13c0,0-3.28,5.59-5.5,11.58
		c-0.19,0.52-0.36,1.02-0.36,1.02s-0.86,2.56-1.37,5.41c-1.47,8.26-1.42,15.93-1.42,15.93c0.09,14.11,0.79,23.29,0.79,23.29
		c0.92,11.96,2.06,21.12,2.5,24.57c3.79,29.82,8.42,54.21,11.13,68.35c1.34,6.98,2.82,14.37,2.96,15.08
		c2.79,13.92,3.86,18.39,5.47,26.26c0,0,7.27,35.54,13.9,60.79c0.21,0.79,0.73,2.72,2.09,4.86l0,0c0.28,0.43,1.12,1.66,2.43,2.75
		c0,0,0,0,0,0c0,0,1.17,0.78,2.19,1.41c12.21,7.57,57.96-21.78,57.96-21.78c9.44-6.06,17.7-11.4,27.98-20.18
		c10.8-9.22,19.14-18.23,25.32-25.67c-1.59-100.78-3.04-176.55-3.89-210.11c-0.45-17.87-1.35-48.37-9.13-87.54
		c-9.05-45.55-16.74-81.92-45.78-115.75c-25.36-29.54-55.08-43.24-67.95-49.02c-37.65-16.89-70.17-17.87-79.04-17.98
		C265.58,197.78,202.45,210.88,196.24,241z"/>
	<path class="st21" d="M380.57,580.54c2.88,75.17,6.9,115.23,4.88,115.52c-1.95,0.27-8.73-36.73-15.54-73.91
		c-1.85-10.1-4.18-23.17-6.54-40.09c-1.69-12.16-2.6-22.2-4.45-42.3c-0.08-0.89-0.79-8.85-0.77-19.39
		c0.02-11.91,0.95-16.29,1.86-19.41c1.52-5.21,3.97-10.31,4.52-11.43c1.48-3.02,2.86-5.36,3.61-6.62c2.33-3.92,2.59-3.77,6.02-9.17
		c2.87-4.52,4.35-7.26,5.42-9.34c0.51-1,1.02-2.04,1.54-3.17c0.38-0.83,2.61-5.72,4.14-11.4c1.12-4.16,3.82-14.65,1.28-27.11
		c-1.6-7.86-3.74-18.58-13.35-25.29c-12.63-8.82-28.6-3.76-29.39-3.49c-6.94,2.32-12.75,7.03-14.09,8.11
		c-3.71,3.01-6.12,5.86-12.24,10.51c0,0-2.69,2.15-5.86,4.16c-6.5,4.13-44.67,18.08-71.37,6.46
		c-53.75-23.37-89.64-162.77-94.63-171.23c-1.93-3.27-4.71-4.52-4.71-4.52c-1.26-0.55-2.43-0.72-3.27-0.76
		c-0.52-0.07-1.46-0.11-2.46,0.31c-2.25,0.94-2.86,3.36-2.93,3.66c0.11-1.35,1.75-17.66,15.55-24.92
		c7.01-3.69,13.83-3.29,16.92-2.91c1.92,5.69,40.9,118.46,93.85,147.89c9.81,5.45,17.16,9.54,28.25,11.39
		c22.42,3.74,45.83-5.26,69.28-3.65c2.63,0.18,6.74,0.59,11.69,2.09c0,0,9.73,2.93,18.15,9.71c14.02,11.28,26.59,44.35,18.35,78.42
		c-3.92,16.2-8.63,16.45-15.71,34.74C379.01,528.06,379.36,548.85,380.57,580.54z"/>
	<g id="волосся_текстура" class="st1">
		<g class="st23">
			<path class="st4" d="M599.92,541.58c-0.37,0.14-0.74,0.27-1.12,0.41c-0.51,0.05-1.12-0.02-1.84-0.21
				c-0.03-0.01-0.05-0.01-0.08-0.03c-0.79-0.26-1.71-0.59-2.71-1.01c-0.05-0.03-0.11-0.05-0.17-0.08
				c-3.09-1.46-7.09-4.03-11.54-7.43c-0.1-0.08-0.2-0.15-0.3-0.24c-1.87-1.47-3.47-2.77-4.7-3.8c-0.32-0.27-0.62-0.52-0.89-0.75
				c-0.62-0.52-1.25-1.06-1.88-1.62c-5.34-4.77-9.48-9-11.82-11.46c-0.19-0.2-0.36-0.39-0.53-0.56c-0.31-0.34-0.58-0.63-0.81-0.87
				c-0.31-0.34-0.62-0.68-0.93-1.02c-0.48-0.53-0.96-1.07-1.44-1.61c-8.87-10.05-15.74-20.27-21.28-30.4
				c-0.1-0.18-0.2-0.36-0.29-0.54c-2.96-5.56-5.92-11.69-8.75-18.39c-0.16-0.38-0.31-0.75-0.46-1.11c-1.63-3.96-3.11-7.87-4.5-11.72
				c-0.19-0.54-0.39-1.09-0.58-1.63c-0.03-0.1-0.07-0.19-0.1-0.29c-2.27-6.65-5.67-16.78-9.59-29.18
				c-16-50.76-24.28-76.29-21.41-89.3c5.97-27.11,27.23-36.46,21.5-54.39c-0.23-0.71-5.2-16.43-18.8-18.8
				c-12.18-2.13-21.68,8.12-22.52,9.06c-1.82-6.59-5.58-16.65-14-25.6c-27.46-29.2-86.01-27.32-102.49-2.55
				c-5.37,8.07-6.58,21.55-4.38,32.09c2.01,9.59,6.85,16.4,10.03,21.1c10.96,16.23,23.23,19.78,27.52,40.69
				c5.8,28.26-10.14,58.88-3.78,61.38c-2.24-0.04-6.14,0.08-10.67,1.16c-0.05,0.01-0.1,0.03-0.16,0.04
				c-2.11,0.48-4.16,1.11-6.11,1.88c-8.71,3.44-13.37,8.89-18.1,14.76c-3.97,4.31-5.69,6.85-8.22,9.48
				c-3.77,3.71-8.43,7.26-15.03,10.25c5.95-37.16-0.94-62.02-8.6-78.04c-13.76-28.78-31.81-32.86-35.47-57.73
				c-4.69-31.92,21.38-50.17,11.55-65.9c-11.15-17.85-51.3-4.91-53.81-13.34c-3-10.06,45.46-44.21,101.88-45.28
				c13.97-0.27,41.4-1.52,71.37,14.08c36.59,19.05,53.07,50.27,58.35,61.49c18.14-39.6,45.97-61.8,65.1-56.72
				c11.96,3.17,20.71,16.38,24.59,25.18c5.08,11.47,10.98,28.66,11.5,49.72c0.87,35.05-14,47.34-23.88,81.42
				c-23.06,79.56,17.45,152.49,21.21,159.04C580.86,520.75,592,533.49,599.92,541.58z"/>
			<path class="st4" d="M537.88,480.9c5.54,10.13,12.41,20.35,21.28,30.4c0.48,0.54,0.96,1.08,1.44,1.61
				c-3.68-3.99-8.1-8.93-12.99-15.91C543.62,491.31,540.42,485.85,537.88,480.9z"/>
			<path class="st4" d="M482.41,526.23c3.24-5.43,6.31-10.74,9.24-15.92c-1.1,2.18-2.06,4.02-3.8,7.01
				c-1.12,1.91-0.89,1.44-5.02,8.22C482.69,525.77,482.55,526,482.41,526.23z"/>
			<path class="st4" d="M410.89,548.74c-0.05-4.24-0.02-9.39,0.82-26.2c0.44-8.72,0.84-15.67,1.03-18.69
				c-1.08,18.96-1.68,33.69-1.85,45.14C410.89,548.91,410.89,548.83,410.89,548.74z"/>
			<path class="st20" d="M518.56,457.7c1.61-3.53,3.13-6.98,4.58-10.34c0.02-0.05,0.04-0.09,0.06-0.14
				c-0.03,0.08-0.06,0.21-0.11,0.36c-0.68,2.27-1.62,3.83-1.82,4.28C520.33,453.94,519.43,455.87,518.56,457.7z"/>
			<path class="st24" d="M340.77,142.38c0.2,0,0.41-0.01,0.62-0.02c-0.8,0.03-1.59,0.07-2.39,0.11
				C340.16,142.4,340.77,142.38,340.77,142.38z"/>
			<path class="st24" d="M195.72,237.76c0.09,0.03,0.2,0.07,0.3,0.1C195.94,237.83,195.84,237.8,195.72,237.76z"/>
			<path class="st24" d="M470.98,193.4c0.24,3.43,0.49,6.86,0.74,10.29c-3.77-3.26-7.84-6.54-12.2-9.8
				c-12.95-9.65-25.65-16.89-37.15-22.36c-9.25-4.62-22.42-10.18-38.91-13.97c-7.71-1.77-30.95-6.55-61.07-3.04
				c-30.21,3.52-51.55,13.46-63.84,19.33c-18.4,8.79-28.18,16.65-31.06,19.03c-7.22,5.96-18.27,15.27-26.03,31.22
				c-2.66,5.46-4.25,10.32-5.23,13.83c-0.07-0.02-0.14-0.05-0.21-0.07c-0.1-0.03-0.21-0.07-0.3-0.1c-0.18-0.06-0.35-0.12-0.52-0.19
				c-2.48-0.94-7.98-3.52-9.35-8.66c-0.01-0.02-0.01-0.04-0.01-0.05c-0.36-2.55,0.34-5.63,2.01-9.1c0.6-1.11,1.33-2.33,2.21-3.7
				c2.42-3.75,4.95-7.01,7.29-9.74c0.02-0.01,0.03-0.02,0.04-0.04c2.83-3.14,6.12-6.4,9.85-9.71c0.04-0.04,0.08-0.08,0.13-0.12
				c4.1-3.4,7.44-6.17,10.54-8.61c4.75-3.6,9.95-7.18,15.53-10.68c0.05-0.02,0.1-0.05,0.15-0.09
				c49.34-29.19,94.39-33.86,104.88-34.57c0.17-0.02,0.35-0.03,0.53-0.03c0.8-0.04,1.59-0.08,2.39-0.11c0.07,0,0.13,0,0.19,0
				c2.69-0.07,5.86-0.12,9.47-0.07c1.04,0.01,2.08,0.04,3.13,0.08c2.1,0.09,4.21,0.21,6.32,0.37c9.6,0.74,19.02,2.34,28.23,4.69
				c0.06,0.02,0.12,0.03,0.19,0.05c20.57,5.53,36.77,14.54,46.37,19.87c5.9,3.28,10.68,6.25,14,8.39
				c4.45,3.17,9.07,6.71,13.78,10.67C465.86,188.76,468.49,191.09,470.98,193.4z"/>
			<path class="st24" d="M187.85,219.76c-1.67,3.47-2.37,6.55-2.01,9.1C185.22,226.45,185.61,223.9,187.85,219.76z"/>
			<path class="st20" d="M420.45,589.07c-1.26,0.07-2.13-0.01-3.01-0.39c-0.33-0.15-0.64-0.32-0.95-0.54
				c-0.11-0.07-0.23-0.16-0.34-0.25c-0.06-0.04-0.11-0.09-0.17-0.14c-0.17-0.15-0.34-0.31-0.51-0.49c-0.27-0.3-0.54-0.64-0.79-1.02
				c-0.1-0.16-0.2-0.32-0.3-0.49c-1-1.76-1.81-4.38-2.41-8.34c0-0.03-0.01-0.06-0.01-0.09c-0.09-1.03-0.18-2.43-0.29-4.63
				c-0.35-6.84-0.44-10.73-0.44-10.73c-0.23-10.11-0.29-9.98-0.34-12.8c0-0.05,0-0.11,0-0.17c0.17-11.45,0.77-26.18,1.85-45.14
				c0.02-0.29,0.03-0.58,0.05-0.87c0.02-0.39,0.04-0.78,0.07-1.17c0.05-0.84,0.1-1.7,0.15-2.56c0.49-7.84,1.1-17.55,1.85-28.85
				c0.08-1.34,0.18-2.7,0.27-4.08c0.05-0.62,0.09-1.25,0.14-1.88c-0.01-0.01-0.01-0.01,0-0.02c0.29-2.81,1.39-13.87,1.81-25.41
				c0.01-0.06,0.01-0.11,0.01-0.17c0.43-6.13,0.76-13.69-0.46-20.94c0-0.03,0-0.05-0.01-0.08c-0.31-2.47-0.91-5.67-2.56-9.24
				c-0.39-0.84-0.8-1.63-1.24-2.37c-0.03-0.07-0.06-0.13-0.1-0.19c-1.45-2.63-3.31-5.03-5.69-7.07c-0.19-0.16-0.38-0.32-0.57-0.45
				c-0.04-0.06-0.09-0.09-0.13-0.12c-0.98-0.85-1.74-1.38-2.07-1.61c-6.49-4.48-13.03-4.79-17.39-5c-0.34-0.02-0.88-0.04-1.58-0.05
				h-0.01c-6.36-2.5,9.58-33.12,3.78-61.38c-4.29-20.91-16.56-24.46-27.52-40.69c-3.18-4.7-8.02-11.51-10.03-21.1
				c-2.2-10.54-0.99-24.02,4.38-32.09c16.48-24.77,75.03-26.65,102.49,2.55c8.42,8.95,12.18,19.01,14,25.6
				c0.84-0.94,10.34-11.19,22.52-9.06c13.6,2.37,18.57,18.09,18.8,18.8c5.73,17.93-15.53,27.28-21.5,54.39
				c-2.87,13.01,5.41,38.54,21.41,89.3c3.92,12.4,7.32,22.53,9.59,29.18c-0.02,0.05-0.04,0.09-0.06,0.14
				c-3.55,7.52-8.38,17.77-13.69,28.78c-3.23,6.46-4.07,8.27-5.44,10.95c-0.42,0.83-0.87,1.69-1.34,2.58
				c-2.97,5.61-3.05,5.38-6.33,11.53c-2.32,4.36-3.58,6.9-4.68,9.09c0,0.01-0.01,0.01-0.01,0.02c-2.93,5.18-6,10.49-9.24,15.92
				c-0.07,0.12-0.14,0.24-0.22,0.36c-2.51,4.13-4.24,7.01-5.33,8.83c-0.23,0.39-0.47,0.78-0.71,1.17c-3.56,5.8-7.29,11.73-11.2,17.8
				c-0.12,0.19-0.26,0.4-0.42,0.64c-0.02,0.03-0.05,0.07-0.07,0.11c-2.44,3.47-4.91,6.59-7.86,9.85c-0.13,0.15-0.27,0.29-0.42,0.45
				c-2.86,3.06-6.98,7.06-11.56,10.9c-0.2,0.17-0.4,0.33-0.6,0.5c-3.64,2.93-6.14,4.54-9.09,6.45
				C430.25,586.32,425.74,588.8,420.45,589.07z M505.55,438.03c3.09-50.78-44.32-92.59-23.81-129.47c3.3-5.94,9.32-13.48,7.67-23.25
				c-0.34-2.01-1.4-11.6-8.17-13.71c-4.16-1.3-9.16,0.63-12.99,4.6c0.34-3.04,0.65-9.78-3.46-15.56c-1.27-1.8-5.33-6.82-19.41-9.24
				c-18.21-3.13-38.76,0.57-38.95,5.06c-0.2,4.64,21.79,2.03,30.21,15.19c10.14,15.86-12.5,33.82-11.18,63.32
				c1.31,28.94,24.61,28.66,38.49,67.05c16.68,46.11-1.39,89.44-4.34,96.23c-10.38,23.88-24.92,36.03-24.21,36.63
				C436.8,536.05,502.09,494.97,505.55,438.03z"/>
			<path class="st24" d="M388.73,147.43c-9.21-2.35-18.63-3.95-28.23-4.69c-2.11-0.16-4.22-0.28-6.32-0.37
				C363.52,142.68,375.32,143.85,388.73,147.43z"/>
			<path class="st24" d="M217.91,187.84c5.01-3.95,9.43-7.06,15.53-10.68C227.86,180.66,222.66,184.24,217.91,187.84z"/>
			<path class="st24" d="M207.02,196.75c0.07-0.06,0.15-0.12,0.22-0.18c-3.73,3.31-7.02,6.57-9.85,9.71
				C201.91,201.05,205.78,197.79,207.02,196.75z"/>
			<path class="st20" d="M518.56,457.7c-3.09,6.54-5.82,11.85-9.11,18.44c5.31-11.01,10.14-21.26,13.69-28.78
				C521.69,450.72,520.17,454.17,518.56,457.7z"/>
			<path class="st4" d="M598.8,541.99c-0.17,0.06-0.35,0.13-0.52,0.19c-0.38-0.11-0.82-0.24-1.32-0.4
				C597.68,541.97,598.29,542.04,598.8,541.99z"/>
			<path class="st4" d="M594,540.66c-3.53-1.51-6.11-3.28-9.44-5.82c-0.73-0.55-1.43-1.09-2.1-1.61
				C586.91,536.63,590.91,539.2,594,540.66z"/>
			<path class="st4" d="M523.88,449.14c1.39,3.85,2.87,7.76,4.5,11.72C526.7,456.83,525.2,452.91,523.88,449.14z"/>
			<path class="st4" d="M523.3,447.51c0.19,0.54,0.39,1.09,0.58,1.63C523.68,448.59,523.49,448.05,523.3,447.51z"/>
			<path class="st4" d="M509.45,476.14c-1.68,3.48-3.32,6.86-5.44,10.95C505.38,484.41,506.22,482.6,509.45,476.14z"/>
			<path class="st25" d="M481.74,308.56c-20.51,36.88,26.9,78.69,23.81,129.47c-3.46,56.94-68.75,98.02-70.15,96.85
				c-0.71-0.6,13.83-12.75,24.21-36.63c2.95-6.79,21.02-50.12,4.34-96.23c-13.88-38.39-37.18-38.11-38.49-67.05
				c-1.32-29.5,21.32-47.46,11.18-63.32c-8.42-13.16-30.41-10.55-30.21-15.19c0.19-4.49,20.74-8.19,38.95-5.06
				c14.08,2.42,18.14,7.44,19.41,9.24c4.11,5.78,3.8,12.52,3.46,15.56c3.83-3.97,8.83-5.9,12.99-4.6c6.77,2.11,7.83,11.7,8.17,13.71
				C491.06,295.08,485.04,302.62,481.74,308.56z"/>
			<path class="st4" d="M464.95,554.39c3.91-6.07,7.64-12,11.2-17.8c-4.72,7.81-8.14,13.48-11.62,18.44
				C464.69,554.79,464.83,554.58,464.95,554.39z"/>
			<path class="st4" d="M456.18,565.44c-2.02,2.22-6.01,6.37-11.56,10.9C449.2,572.5,453.32,568.5,456.18,565.44z"/>
			<path class="st4" d="M417.09,438.84c0.27-7.32,0.25-14.83-0.41-20.54c-0.02-0.13-0.03-0.26-0.05-0.4
				C417.85,425.15,417.52,432.71,417.09,438.84z"/>
			<path class="st4" d="M416.15,587.89c0.11,0.09,0.23,0.18,0.34,0.25C416.37,588.08,416.26,587.99,416.15,587.89z"/>
			<path class="st4" d="M415.98,587.75c-0.19-0.14-0.36-0.31-0.51-0.49C415.64,587.44,415.81,587.6,415.98,587.75z"/>
			<path class="st4" d="M415.27,464.44c-0.05,0.63-0.09,1.26-0.14,1.88c0.04-0.53,0.07-1.06,0.11-1.6
				C415.25,464.64,415.26,464.55,415.27,464.44z"/>
			<path class="st4" d="M415.47,587.26c-0.3-0.31-0.56-0.66-0.79-1.02C414.93,586.62,415.2,586.96,415.47,587.26z"/>
			<path class="st4" d="M414.38,585.75c0.1,0.17,0.2,0.33,0.3,0.49C414.56,586.08,414.46,585.92,414.38,585.75z"/>
			<path class="st4" d="M414.38,585.75c-1.11-1.9-1.64-4.21-2.01-5.85c-0.18-0.78-0.3-1.44-0.4-2.49
				C412.57,581.37,413.38,583.99,414.38,585.75z"/>
			<path class="st4" d="M412.81,502.58c0.02-0.25,0.03-0.51,0.05-0.77c-0.03,0.39-0.05,0.78-0.07,1.17
				C412.8,502.83,412.8,502.69,412.81,502.58z"/>
			<path class="st4" d="M412.79,502.98c-0.02,0.29-0.03,0.58-0.05,0.87C412.76,503.51,412.77,503.22,412.79,502.98z"/>
			<path class="st4" d="M412.72,406.02c-2.06-3.51-4.5-6.01-6.26-7.52c0.19,0.13,0.38,0.29,0.57,0.45
				C409.41,400.99,411.27,403.39,412.72,406.02z"/>
			<path class="st20" d="M386.87,391.77c-0.69-0.03-1,0-1.2,0.01c-0.03-0.01-0.06-0.02-0.1,0c-0.1,0-0.17-0.02-0.28-0.06
				C385.99,391.73,386.53,391.75,386.87,391.77z"/>
			<path class="st4" d="M368.34,394.8c1.95-0.77,4-1.4,6.11-1.88c-4.18,1.02-8.88,2.86-13.31,6.15c-3.22,2.4-6.33,5.65-9.46,8.95
				c-0.51,0.54-0.99,1.05-1.44,1.54C354.97,403.69,359.63,398.24,368.34,394.8z"/>
			<path class="st4" d="M342.02,419.04c-0.79,0.83-1.65,1.66-2.69,2.56c-2.58,2.23-6.57,5.17-12.34,7.7v-0.01
				C333.59,426.3,338.25,422.75,342.02,419.04z"/>
		</g>
		<g class="st23">
			<path class="st14" d="M599.92,541.58c3.56-3.13-13.46-20.45-21.95-53.86c-4.79-18.85-4.63-34.04-4.46-44.42
				c0.01-0.17,0.02-0.95,0.05-1.77c0.31-10.81,2.26-32.82,16.46-70.85c5.09-13.65,8.05-19.42,15.42-40.14
				c1.91-5.35,3.53-10.06,3.96-11.37c4.79-14.79,13.87-62.65-8.68-114.88c-7.35-17.02-18.76-42.5-44.52-54.6
				c-4.85-2.28-15.6-7.17-29.59-5.91c-21.6,1.95-35.29,17.15-37.23,19.36c-4.25,4.87-7.77,10.75-13.34,20.07
				c-3.09,5.17-4.23,7.57-5.19,9.47c-23.81-21.36-51.68-37.42-81.93-45.2c-0.07-0.02-0.13-0.03-0.19-0.05
				c-9.21-2.35-18.63-3.95-28.23-4.69c-2.11-0.16-4.22-0.28-6.32-0.37c-1.05-0.04-2.09-0.07-3.13-0.08
				c-3.17-0.07-6.33-0.05-9.47,0.07c-0.06,0-0.12,0-0.19,0c-0.8,0.03-1.59,0.07-2.39,0.11c-0.18,0-0.36,0.01-0.53,0.03
				c-39.44,2.06-76.92,17.11-104.88,34.57c-0.05,0.04-0.1,0.07-0.15,0.09c-5.58,3.5-10.78,7.08-15.53,10.68
				c-3.81,2.88-7.33,5.76-10.54,8.61c-0.05,0.04-0.09,0.08-0.13,0.12c-3.73,3.31-7.02,6.57-9.85,9.71
				c-0.01,0.02-0.02,0.03-0.04,0.04c-4.34,4.84-7.57,9.4-9.5,13.44c-1.67,3.47-2.37,6.55-2.01,9.1c0,0.01,0,0.03,0.01,0.05
				c0.06,0.43,0.15,0.84,0.28,1.24c1.04,3.26,4.26,5.68,9.07,7.42c0.17,0.07,0.34,0.13,0.52,0.19c0.09,0.03,0.2,0.07,0.3,0.1
				c0.07,0.02,0.14,0.05,0.21,0.07c13.09,4.3,36.65,4.11,60.09,2.48c-3.85,5.76-10.35,17.26-11.47,32.92
				c-1.53,21.47,8.02,37.31,11.84,43.44c10.5,16.89,16.74,12.77,25.74,27.43c7.19,11.73,9.02,26.6,12.66,56.33
				c2.3,18.71,2.25,27.85,9.06,31.78c6.63,3.84,15.39,0.21,21.64-2.48c0.41-0.18,0.81-0.35,1.2-0.53v-0.01
				c6.6-2.99,11.26-6.54,15.03-10.25c3.18-3.13,5.71-6.36,8.22-9.48c4.73-5.87,9.39-11.32,18.1-14.76c1.95-0.77,4-1.4,6.11-1.88
				c0.06-0.01,0.11-0.03,0.16-0.04c3.55-0.8,7.28-1.18,10.96-1.1c0.04-0.02,0.07-0.01,0.1,0c7.66,0.14,15.16,2.23,20.66,6.6
				c0.04,0.03,0.09,0.06,0.13,0.12c0.19,0.13,0.38,0.29,0.57,0.45c2.38,2.04,4.24,4.44,5.69,7.07c0.04,0.06,0.07,0.12,0.1,0.19
				c1.93,3.56,3.11,7.53,3.8,11.61c0.01,0.03,0.01,0.05,0.01,0.08c1.22,7.25,0.89,14.81,0.46,20.94c0,0.06,0,0.11-0.01,0.17
				c-0.06,0.89-0.12,1.74-0.18,2.56c-0.59,8.05-1.14,15.66-1.63,22.85c-0.01,0.01-0.01,0.01,0,0.02c-0.05,0.63-0.09,1.26-0.14,1.88
				c-0.09,1.38-0.19,2.74-0.27,4.08c-0.72,10.53-1.34,20.11-1.85,28.85c-0.05,0.86-0.1,1.72-0.15,2.56
				c-0.03,0.39-0.05,0.78-0.07,1.17c-0.02,0.29-0.03,0.58-0.05,0.87c-1.08,18.96-1.68,33.69-1.85,45.14c0,0.06,0,0.12,0,0.17
				c-0.2,13.37,0.19,22.24,1.07,28.16c0,0.03,0.01,0.06,0.01,0.09c0.6,3.96,1.41,6.58,2.41,8.34c0.1,0.17,0.2,0.33,0.3,0.49
				c0.25,0.38,0.52,0.72,0.79,1.02c0.17,0.18,0.34,0.34,0.51,0.49c0.06,0.05,0.11,0.1,0.17,0.14c0.11,0.09,0.23,0.18,0.34,0.25
				c0.31,0.22,0.62,0.39,0.95,0.54c6.21,2.81,17.25-4.11,26.58-11.84c0.2-0.17,0.4-0.33,0.6-0.5c4.58-3.84,8.7-7.84,11.56-10.9
				c0.15-0.16,0.29-0.3,0.42-0.45c3.89-4.21,6.53-7.87,7.86-9.85c0.02-0.04,0.05-0.08,0.07-0.11c0.16-0.24,0.3-0.45,0.42-0.64
				c3.91-6.07,7.64-12,11.2-17.8c0.24-0.39,0.48-0.78,0.71-1.17c1.83-2.98,3.61-5.92,5.33-8.83c0.08-0.12,0.15-0.24,0.22-0.36
				c3.24-5.43,6.31-10.74,9.24-15.92c0-0.01,0.01-0.01,0.01-0.02c10.84-19.18,19.68-36.71,26.9-52.59
				c1.61-3.53,3.13-6.98,4.58-10.34c0.02-0.05,0.04-0.09,0.06-0.14c0.03,0.1,0.07,0.19,0.1,0.29c0.19,0.54,0.39,1.09,0.58,1.63
				c1.39,3.85,2.87,7.76,4.5,11.72c0.15,0.36,0.3,0.73,0.46,1.11c2.52,6.05,5.39,12.2,8.75,18.39c0.09,0.18,0.19,0.36,0.29,0.54
				c5.54,10.13,12.41,20.35,21.28,30.4c0.48,0.54,0.96,1.08,1.44,1.61c0.31,0.34,0.62,0.68,0.93,1.02c0.27,0.29,0.54,0.58,0.81,0.87
				c0.17,0.19,0.34,0.37,0.53,0.56c3.91,4.16,7.93,8.03,11.82,11.46c0.63,0.56,1.26,1.1,1.88,1.62c0.3,0.26,0.59,0.52,0.89,0.75
				c1.61,1.37,3.18,2.64,4.7,3.8c0.1,0.09,0.2,0.16,0.3,0.24c4.45,3.4,8.45,5.97,11.54,7.43c0.06,0.03,0.12,0.05,0.17,0.08
				c1.01,0.47,1.92,0.81,2.71,1.01c0.03,0.02,0.05,0.02,0.08,0.03c0.72,0.19,1.33,0.26,1.84,0.21
				C599.27,541.96,599.64,541.82,599.92,541.58z"/>
		</g>
	</g>
	<g class="st1">
		<path class="st26" d="M198.76,526.77c16.79,13.1,6.15,26.18-5.09,38.22c-10.27,10.64-21.93,20.03-34.84,27.25
			c11.47-9.18,22.57-18.68,32.67-29.32c4.85-5.18,10.05-10.59,12.97-17.06C207.46,539.02,203.65,531.75,198.76,526.77L198.76,526.77
			z"/>
	</g>
	<g id="Шар_13">
	</g>
	<g id="Шар_16">
	</g>
	<g>
		<g>
			<path class="st27" d="M175.45,403.02c-1.89,0.27-3.79,0.38-5.7,0.37c-1.58-0.01-3.16-0.05-4.72,0.25
				c-3.42,0.65-6.75,2.24-9.91,3.66c-3.31,1.48-6.58,3.19-10.09,4.13c-2.53,0.67-7.43,1.52-8.76-1.59
				c-0.51-1.18-2.23-0.16-1.73,1.01c1.26,2.95,5.03,3.37,7.82,3.09c3.82-0.38,7.34-1.99,10.8-3.56c3.64-1.66,7.28-3.42,11.14-4.5
				c1.96-0.55,3.89-0.48,5.9-0.48c1.94,0,3.86-0.17,5.78-0.44C177.25,404.77,176.71,402.84,175.45,403.02L175.45,403.02z"/>
		</g>
	</g>
	<path class="st28" d="M147.51,394.69c0.05-0.15,0.09-0.3,0.1-0.46c0.12-1.64-1.6-2-2.85-2.25c-1.64-0.33-3.3-0.57-4.97-0.74
		c-0.97-0.1-1.28,0.85-0.98,1.56c-0.28,0.3-0.43,0.78-0.3,1.13c0.2,0.51,0.46,0.93,0.94,1.22c0.47,0.29,1.15,0.21,1.58,0.49
		c0.71,0.47,0.18,2.27,0.2,2.96c0,0.08,0.03,0.15,0.05,0.22c-0.09,0.56-0.17,1.11-0.26,1.67c-0.39,0.15-0.71,0.49-0.75,1.02
		c-0.03,0.43-0.09,0.86-0.15,1.28c-0.58-0.14-1.27,0.16-1.41,0.8c-0.37,1.68-0.17,3.63,0.37,5.26c0.5,1.53,2.1,2.64,3.64,1.73
		c1.31-0.78,2.08-2.59,2.63-3.94c0.66-1.61,0.99-3.32,1.04-5.06c0-0.08-0.02-0.15-0.03-0.22c0.61-2.15,1.01-4.36,1.16-6.61
		C147.53,394.73,147.51,394.71,147.51,394.69z"/>
	<path class="st29" d="M143.81,394.53c-0.8-0.95-1.91-1.24-3.06-1.25c-0.4-0.05-0.8-0.06-1.2-0.01c-0.62,0.07-1.15,0.48-1.15,1.15
		c0,0.38,0.23,0.79,0.57,1c0.19,0.16,0.43,0.25,0.68,0.22c0.24-0.03,0.5-0.06,0.77-0.08c0.24,0.02,0.49,0.07,0.73,0.15
		c0.04,0.08,0.08,0.15,0.11,0.23c0.01,0.2,0.04,0.41,0.05,0.6c0.02,0.34,0.03,0.69,0.04,1.03c-0.36,0.11-0.67,0.36-0.75,0.75
		c-0.28,1.43-0.67,2.83-1.16,4.2c-0.72-0.07-1.36,0.53-1.22,1.42c0.11,0.7,0.36,1.42,0.91,1.9c0.93,0.81,2.21,0.23,2.38,0.16
		c0.91-0.38,1.33-1.2,1.86-2.21c0.08-0.16,0.34-0.66,0.7-1.79c0.44-1.39,0.64-2.13,0.75-3.1
		C144.99,397.37,144.83,395.75,143.81,394.53z"/>
	<path d="M142.46,395.47c-0.66-0.85-1.74-0.98-2.74-0.87c-0.11,0.01-0.22,0.05-0.32,0.08c-0.17,0.01-0.33,0.02-0.48,0.02
		c-0.58,0.02-0.7,0.74-0.36,1.03c-0.18,0.29-0.23,0.63-0.22,0.97c0.02,0.58,0.1,1.15,0.2,1.72c0.03,0.15,0.1,0.25,0.2,0.31
		c-0.05,0.38-0.1,0.76-0.15,1.14c-0.08,0.65-0.15,1.3-0.22,1.94c-0.02,0.16-0.04,0.34-0.03,0.5c-0.04,0.12-0.08,0.25-0.07,0.38
		c0.01,0.19,0.07,0.36,0.15,0.51c-0.03,0.26,0.08,0.54,0.39,0.6c0.2,0.04,0.38,0.05,0.55,0.02c0.02,0,0.04,0.01,0.07,0.01
		c1.23,0.03,2.13-0.88,2.62-1.92c0.48-1.02,0.84-2.06,0.99-3.18C143.15,397.69,143.14,396.36,142.46,395.47z"/>
	<path class="st30" d="M139.39,394.91c-0.64,0.03-1.13,0.51-1.15,1.15c-0.07,2.17-0.21,4.33-0.44,6.49
		c-0.06,0.6,0.58,1.18,1.15,1.15c0.68-0.03,1.08-0.51,1.15-1.15c0.23-2.16,0.38-4.32,0.44-6.49
		C140.56,395.46,140,394.89,139.39,394.91z"/>
	<path class="st30" d="M163.32,401.18c-0.4-1.24-1.74-2.18-3.08-1.75c-2.34,0.76-4.67,1.55-6.89,2.6c-0.49,0.23-0.97,0.48-1.44,0.74
		c-0.27,0.15-0.54,0.32-0.81,0.47c-0.11,0.06-0.22,0.12-0.34,0.18c-0.03,0.01-0.06,0.02-0.11,0.04c-0.31-0.46-0.75-0.82-1.35-0.96
		c-1.25-0.29-2.79,0.38-3.08,1.75c-0.05,0.25-0.11,0.5-0.2,0.75c-0.02,0.05-0.03,0.09-0.05,0.14c-0.01,0.02-0.04,0.07-0.09,0.18
		c-0.46,0.91-0.45,1.95,0.2,2.78c0.56,0.73,1.7,1.25,2.63,0.9c1.05-0.4,2.19-0.37,3.25-0.7c1.25-0.38,2.32-1.16,3.48-1.73
		c0.28-0.14,0.56-0.27,0.84-0.39c0.02-0.01,0.25-0.11,0.36-0.16c0.54-0.22,1.08-0.43,1.63-0.63c1.09-0.4,2.19-0.76,3.3-1.12
		C162.82,403.85,163.75,402.51,163.32,401.18z"/>
	<path class="st30" d="M143.43,395.16c-1.48,0-1.49,2.3,0,2.3C144.91,397.47,144.91,395.16,143.43,395.16z"/>
	<path class="st7" d="M177.21,402.74c-0.04-0.23-0.07-0.46-0.1-0.69c-0.04-0.25-0.06-0.4-0.08-0.62c-0.06-0.46-0.11-0.93-0.16-1.4
		c-0.01-0.09-0.04-0.17-0.08-0.24c0-0.03,0-0.05-0.01-0.08c-0.03-0.13-0.09-0.24-0.18-0.34c-0.07-0.11-0.16-0.19-0.28-0.26
		c-0.11-0.06-0.24-0.11-0.38-0.13c-0.17-0.27-0.38-0.5-0.67-0.67c-0.27-0.16-0.56-0.29-0.83-0.44c-0.16-0.57-0.54-1.05-1.07-1.35
		c-0.33-0.18-0.64-0.39-0.94-0.61c-0.09-0.08-0.19-0.15-0.28-0.24c-0.17-0.16-0.37-0.29-0.58-0.38c-0.13-0.48-0.45-0.91-0.9-1.25
		c-3.6-2.69-7.32-5.23-11.14-7.59c-0.3-0.18-0.59-0.27-0.88-0.3c-1.42-1.04-2.88-2.02-4.38-2.93c-0.97-0.59-2-1.02-3.05-1.36
		c-1.87-0.95-3.95-1.28-6.04-1.43c-0.58-0.14-1.16-0.25-1.74-0.31c-0.22-0.14-0.45-0.26-0.69-0.32c-1.19-0.34-2.21,0.09-2.94,0.89
		c-0.12,0.01-0.23,0.03-0.35,0.07c-0.8,0.32-1.45,0.75-2.11,1.3c-0.25,0.21-0.5,0.43-0.75,0.64c-0.06,0.05-0.11,0.09-0.17,0.14
		c-0.01,0.01-0.01,0-0.01,0.01c-0.13,0.09-0.26,0.19-0.4,0.28c-0.64,0.4-1.33,0.68-1.97,1.07c-0.67,0.41-1.29,0.87-1.92,1.34
		c-0.32,0.24-0.58,0.49-0.69,0.9c-0.06,0.21-0.06,0.46-0.02,0.7c-0.13,0.03-0.24,0.11-0.31,0.24c-0.11,0.08-0.23,0.15-0.34,0.24
		c-0.21,0.17-0.18,0.53,0,0.71c0.21,0.21,0.5,0.17,0.71,0c0.08-0.07,0.18-0.12,0.26-0.19l0.6,0.08c0.27,0.12,0.55,0.16,0.83,0.11
		c0.62,0.08,1.23,0.17,1.85,0.25c1.2,0.16,2.4,0.36,3.61,0.14c0.2-0.04,0.33-0.22,0.36-0.42c4.81,0.88,9.53,2.15,14.22,3.51
		c0.65,0.74,1.73,1.14,2.66,1.55c1.4,0.63,2.75,1.36,4.09,2.1c2.76,1.53,5.5,3.09,8.48,4.15c0.21,0.07,0.43,0.09,0.64,0.08
		c0.21,0.16,0.43,0.29,0.69,0.37c0.09,0.03,0.17,0.07,0.26,0.11c1.11,0.48,2.18,1.01,3.22,1.62c0.36,0.21,0.8,0.29,1.22,0.25
		c0.19,0.12,0.38,0.22,0.58,0.32c0.06,0.03,0.11,0.05,0.17,0.08c0.09,0.04,0.18,0.09,0.28,0.11c0.09,0.01,0.18,0.02,0.27,0.04
		c0.05,0,0.11-0.01,0.16-0.02c0.02,0.1,0.05,0.19,0.13,0.27c0.05,0.05,0.12,0.09,0.19,0.11c0,0.03,0.01,0.05,0.01,0.08
		c0.04,0.26,0.38,0.43,0.62,0.35C177.15,403.27,177.26,403.02,177.21,402.74z"/>
	<path class="st31" d="M176.48,403.11c-0.52-0.06-1.03-0.17-1.53-0.28c-0.09-0.09-0.21-0.16-0.35-0.15c-0.01,0-0.02,0-0.03,0
		c-0.01,0-0.03-0.01-0.04-0.01c-0.03-0.01-0.04-0.01-0.03-0.01c-0.02-0.01-0.04-0.02-0.05-0.02c-0.04-0.02-0.07-0.03-0.11-0.05
		c-0.16-0.07-0.32-0.14-0.48-0.21c-0.32-0.14-0.63-0.27-0.95-0.41c-0.07-0.03-0.13-0.05-0.2-0.06c-0.38-0.16-0.75-0.33-1.13-0.49
		c-0.08-0.03-0.16-0.05-0.24-0.06c-0.09-0.33-0.34-0.59-0.68-0.72c-2.56-0.91-4.8-2.63-7.49-3.22c-0.08-0.02-0.15-0.01-0.23-0.01
		c-0.08-0.13-0.19-0.25-0.32-0.34c-1.91-1.22-4.07-2.03-6.18-2.86c0.04-0.23-0.06-0.47-0.34-0.54c-0.67-0.18-1.35-0.36-2-0.63
		c-0.43-0.18-0.84-0.4-1.26-0.6c-0.06-0.06-0.13-0.11-0.23-0.14c-0.05-0.01-0.1-0.03-0.14-0.04c-0.01-0.01-0.03-0.01-0.04-0.02
		c0,0,0,0,0,0c-0.04-0.02-0.08-0.04-0.12-0.05c-0.06-0.02-0.13-0.03-0.19-0.02c-1.01-0.28-1.99-0.67-2.91-1.18
		c-0.23-0.13-0.45-0.05-0.59,0.1c-0.43-0.12-0.86-0.27-1.27-0.46c0,0,0,0,0,0c-0.04-0.02-0.08-0.04-0.12-0.05
		c-0.08-0.03-0.15-0.03-0.22-0.02c-0.3-0.09-0.61-0.15-0.91-0.23c-0.57-0.15-1.15-0.29-1.72-0.44c-0.04-0.01-0.07,0-0.1-0.01
		c-0.06-0.05-0.12-0.09-0.22-0.11c-2.26-0.49-4.55-0.84-6.86-1.05c-0.09-0.01-0.17,0.02-0.23,0.05c-0.35-0.01-0.69,0-1.04,0.03
		c-0.22-0.03-0.43-0.06-0.65-0.09c-0.08-0.1-0.2-0.17-0.35-0.18c-1.24-0.07-2.47-0.09-3.71-0.04c-0.18,0.01-0.3,0.08-0.38,0.19
		c-0.15-0.1-0.34-0.13-0.5-0.01c-0.24,0.18-0.39,0.39-0.51,0.64c-0.01,0-0.02,0-0.03,0c-0.53,0.13-0.44,1.04,0.13,0.98
		c0.24-0.03,0.48-0.03,0.73-0.04c0.31,0.03,0.63,0.1,0.93,0.13c0.5,0.05,0.99,0.06,1.49,0.03c0.09,0,0.16-0.03,0.22-0.07
		c0.5,0.05,1,0.11,1.49,0.17c0.12,0.02,0.21-0.02,0.29-0.08c0.08,0.08,0.19,0.15,0.33,0.16c1.02,0.12,2.05,0.15,3.07,0.09
		c0.09-0.01,0.17-0.04,0.24-0.09c0.24,0,0.47,0,0.71,0c0.01,0,0.01,0.01,0.02,0.01c1.23,0.18,2.46,0.36,3.69,0.53
		c0.54,0.26,1.09,0.45,1.67,0.59c0.39,0.3,0.9,0.45,1.36,0.6c0.39,0.13,0.79,0.21,1.19,0.31c0.19,0.06,0.39,0.11,0.58,0.15
		c0.1,0.02,0.2,0.01,0.28-0.02c0.04,0.04,0.09,0.07,0.14,0.09c1.07,0.43,2.18,0.82,3.21,1.36c0.95,0.49,1.86,1.07,2.9,1.36
		c0.09,0.03,0.18,0.02,0.26,0c0.09,0.07,0.2,0.13,0.31,0.18c2.25,0.91,4.53,1.69,6.57,3c0.14,0.09,0.3,0.12,0.47,0.12
		c0.13,0.21,0.32,0.37,0.56,0.43c2.67,0.59,4.92,2.3,7.49,3.22c0.24,0.09,0.5,0.04,0.72-0.08c0.29,0.32,0.67,0.56,1.09,0.67
		c0.04,0.06,0.09,0.12,0.16,0.15c0.09,0.15,0.25,0.24,0.43,0.26c1.32,0.17,2.64,0.35,3.96,0.52c0.27,0.03,0.5-0.25,0.5-0.5
		C176.98,403.31,176.75,403.14,176.48,403.11z"/>
	<path class="st31" d="M139.35,410.38c-0.22-0.28-0.45-0.58-0.64-0.92c-0.17-0.31-0.27-0.61-0.26-0.96c0-0.06-0.02-0.1-0.04-0.15
		c0-0.08,0.01-0.15,0.01-0.23c-0.01-0.13-0.05-0.26-0.15-0.35c-0.09-0.09-0.23-0.15-0.35-0.15c-0.13,0.01-0.26,0.05-0.35,0.15
		c-0.09,0.09-0.16,0.22-0.15,0.35c0,0.03,0,0.07,0,0.1c-0.73,0.41-1.46,0.82-2.19,1.23c-0.24,0.13-0.31,0.45-0.18,0.68
		c0.08,0.14,0.22,0.21,0.37,0.23c0.4,0.32,1.16,0.46,1.52,0.49c0.09,0.01,0.18,0.02,0.28,0.02c0.58,0.18,1.17,0.31,1.78,0.34
		c0.2,0.01,0.39-0.13,0.46-0.31C139.54,410.73,139.48,410.54,139.35,410.38z"/>
	<path class="st30" d="M168.86,402.28c-2.01-0.71-3.98-1.53-5.9-2.47c-0.18-0.09-0.35-0.06-0.48,0.02c-0.62-0.3-1.25-0.56-1.91-0.76
		c-0.07-0.02-0.15-0.03-0.22-0.04c-0.31-0.11-0.62-0.22-0.93-0.33c-0.92-0.51-1.84-1.03-2.75-1.54c-0.01-0.01-0.03-0.01-0.04-0.01
		c-0.11-0.14-0.24-0.26-0.41-0.33c-2.11-0.91-4.23-1.81-6.34-2.72c-0.29-0.13-0.62-0.17-0.93-0.15c-0.03-0.23-0.25-0.44-0.49-0.43
		c-0.23,0.01-0.41,0.16-0.47,0.37c-0.04,0.07-0.08,0.16-0.07,0.27c0.01,0.11,0.01,0.22,0.01,0.33c-0.03,0.05-0.07,0.09-0.1,0.15
		c-0.19,0.36-0.23,0.86-0.1,1.29c-0.03,0.06-0.06,0.12-0.09,0.19c-0.5,1.42-0.48,3.02-0.6,4.5c-0.12,1.49-0.24,2.99-0.36,4.48
		c-0.03,0.38,0.17,0.76,0.46,1.05c-0.21,0.02-0.4,0.08-0.59,0.18l-0.3,0.23c-0.19,0.19-0.31,0.41-0.39,0.66
		c-0.01,0.04-0.02,0.07-0.03,0.11c-0.02,0.03-0.03,0.06-0.05,0.08c0,0-0.01,0.01-0.01,0.01c-0.08,0.08-0.15,0.16-0.2,0.25
		c-0.07,0.02-0.14,0.06-0.21,0.13c-0.35,0.38-0.56,0.82-0.76,1.28c-0.18,0.41-0.36,0.88-0.74,1.14c-0.54,0.36-0.08,1.13,0.5,0.86
		c0.64-0.29,1.29-0.59,1.9-0.95c0.1-0.06,0.18-0.13,0.27-0.19c0.1,0.01,0.2,0.03,0.31,0.04c0.27,0,0.52-0.07,0.76-0.2
		c0.4-0.2,0.8-0.42,1.18-0.65c0.17-0.09,0.32-0.22,0.42-0.39c0.01-0.01,0.01-0.02,0.02-0.03c0.17-0.07,0.33-0.15,0.49-0.24
		c0.6-0.22,1.22-0.38,1.86-0.47c0.55-0.08,0.43-1.04-0.13-0.98c-0.19,0.02-0.38,0.04-0.56,0.06c-0.15-0.25-0.51-0.39-0.78-0.12
		c-0.11,0.11-0.25,0.19-0.37,0.29c-0.1,0.02-0.21,0.03-0.31,0.05c-0.03-0.07-0.06-0.15-0.1-0.22l-0.23-0.3
		c-0.12-0.12-0.26-0.21-0.41-0.28c0.17-0.06,0.34-0.14,0.48-0.26c0.14,0.09,0.28,0.16,0.43,0.2c0.6,0.14,1.43-0.07,1.69-0.69
		c0.02-0.04,0.03-0.07,0.05-0.11c0.12,0.07,0.24,0.13,0.39,0.17c0.64,0.15,1.2-0.08,1.56-0.53c0.03,0.01,0.06,0.02,0.09,0.03
		c0.43,0.1,0.87,0.01,1.22-0.21c0.53,0.19,1.13,0.1,1.57-0.33c0.21-0.2,0.41-0.39,0.63-0.58c0.11-0.1,0.21-0.19,0.32-0.28
		c0.05-0.04,0.1-0.08,0.15-0.12c0.18-0.15,0.41-0.27,0.6-0.37c0.06-0.03,0.13-0.07,0.19-0.1c0.04-0.02,0.06-0.03,0.08-0.04
		c0.08-0.03,0.15-0.05,0.22-0.07c0.12-0.04,0.24-0.07,0.37-0.1c0.11-0.02,0.32-0.11,0.43-0.08c-0.22,0.03-0.24,0.03-0.07,0.01
		c0.07-0.01,0.15-0.02,0.22-0.02c0.13-0.01,0.26-0.02,0.38-0.02c0.28-0.01,0.56-0.01,0.84-0.01c0.1,0.19,0.29,0.34,0.56,0.3
		c2.49-0.41,5.06-0.42,7.55-0.03C169.22,403.34,169.47,402.49,168.86,402.28z"/>
	<path class="st32" d="M168.79,402.09c-0.87-0.26-1.75-0.46-2.64-0.64c-0.14-0.51-0.5-0.98-1.03-1.05c-2.8-0.42-5.28-1.99-7.79-3.19
		c-2.45-1.17-5.17-1.84-7.48-3.28c-0.43-0.27-0.86-0.28-1.22-0.14c-0.11-0.06-0.23-0.09-0.35-0.05c-0.18,0.05-0.29,0.18-0.35,0.35
		c-0.07,0.17-0.11,0.35-0.14,0.53c-0.21,0.45-0.22,0.98,0.06,1.42c-0.24,0.21-0.32,0.6,0.05,0.76c4.88,2.13,9.69,4.41,14.43,6.85
		c0.36,0.18,0.69-0.09,0.75-0.39c0.81,0.12,1.62,0.14,2.43,0.06c0.17-0.02,0.3-0.11,0.39-0.23c0.4,0,0.8,0.01,1.21-0.01
		c0.21-0.01,0.36-0.12,0.43-0.27c0.33,0.09,0.67,0.16,1,0.26C169.15,403.24,169.41,402.28,168.79,402.09z"/>
	<path class="st14" d="M172.53,403.58c-1.82-0.36-4.55-0.7-7.84-0.24c-0.14,0.02-0.72,0.09-1.48,0.25
		c-1.92,0.41-4.15,1.25-9.23,3.47c-7.14,3.13-8.29,3.92-11.41,4.21c-3.41,0.32-7.84-0.02-8.06-1.15c-0.1-0.51,0.6-1.38,4.25-3"/>
	<path class="st14" d="M172.52,403.55c-1.85-0.75-4.69-1.91-8.14-3.37c-12.61-5.34-15.25-6.93-20.32-8.25
		c-3.44-0.89-8.66-1.82-15.49-1.41"/>
	<path class="st14" d="M177.07,403.47c-1.9-0.73-4.77-1.88-8.16-3.43c-7.01-3.21-7.74-4.22-12.92-6.47
		c-1.27-0.55-7.16-3.44-15.15-4.64c-2.66-0.4-6.36-0.74-10.82-0.47"/>
	<path class="st14" d="M141.46,379.81c-2.41,0.85-4.25,1.9-5.52,2.74c-0.98,0.65-2.38,1.59-3.88,3.21c-1.55,1.67-2.5,3.32-3.08,4.49
		"/>
	<path class="st14" d="M134.55,381.02c1.94-0.62,4.86-1.31,8.39-1.2c4.9,0.16,8.82,1.79,13.47,4.38
		c4.96,2.77,12.44,7.58,20.79,15.58"/>
	<path class="st14" d="M138.59,390.81c-0.04,0.86-0.1,2.34-0.19,4.18c-0.17,3.56-0.42,6.3-0.16,9.65c0.38,4.91,1.04,5.63,1.59,5.99
		c0,0,0.99,0.63,2.34,0.37c4.34-0.86,5.43-15.25,5.61-17.91"/>
</g>
<g id="вухо">
	<path class="st33" d="M369.93,408.98c-7.99-5.12-16.84-2.83-18.82-2.31c-0.76,0.2-3.82,1.03-7.31,3.16c-3.88,2.37-6.39,5.18-7.78,7
		c-2.2,2.87-5.12,6.69-5.24,11.97c-0.08,3.59,1.26,6.74,2.07,8.65c1.74,4.09,2.97,4.19,3.84,7.18c0.14,0.49,1.54,5.56-0.87,10.28
		c-2.72,5.33-7.6,4.94-8.65,9.4c-0.62,2.64,0.45,5.54,2.05,7.28c4.07,4.42,12.62,1.96,16.5,0.86c14.42-4.11,22.36-15.73,24.12-18.45
		c4.95-7.65,6.3-14.64,7.25-19.67c1.34-7.11,2.51-12.69-0.44-18.28C374.52,411.97,371.26,409.83,369.93,408.98z"/>
</g>
<g id="Шар_19" class="st1">
	<path class="st34" d="M900.61,318.92c-2.22,5.21-4.93,12.66-6.79,21.91c-2.93,14.58-2.01,25.03-1.78,27.41
		c1.42,14.48,6.47,26.09,10.75,26.4c0.63,0.04,2.45-0.07,5.29,0.35c1.66,0.25,2.91,0.57,3.95,0.84c3.98,1.06,7.9,2.32,10.61,3.24
		c13.43,3.52,29.17,9.39,45.21,19.39c54.81,34.2,72.57,91.54,77.61,110.71c-34.12,18.57-117.1,57.82-228.78,52.32
		c-109.2-5.37-186.62-50.6-219.01-72.14c57.35-40.97,69.07-61.94,64.92-73.31c-1.12-3.06-3.24-5.05-3.01-8.56
		c0.92-13.61,35.62-22.62,70.51-28.52c6.39-13.79,7.42-25.33,7.44-32.17c0.02-8.56-1.5-15.63-3.14-23.21
		c-2.08-9.65-4.7-17.52-6.81-23.12c13.55,7.8,47.02,24.63,92.3,22.75C858.77,341.59,887.22,326.97,900.61,318.92z"/>
	<path class="st35" d="M807.34,405.15c-15.03,1.46-27.98-2.14-33.59-3.75c-7.28-2.09-13.16-4.67-17.37-6.76
		c-3.04,16.9-9.88,25.85-15.56,30.89c-16.49,14.64-39.45,10.83-43.79,24.41c-1.46,4.57-0.08,8.81,0.93,11.93
		c5.41,16.64,25.19,20.2,24.22,25.9c-1.04,6.15-24.15,2.32-28.51,11.54c-5.5,11.64,25.23,29.4,21.17,41.85
		c-3.69,11.34-43.64,17.1-56.61-0.17c-5.43-7.24-3.2-18.47,0.31-41.08c3.69-23.76,13.01-28.87,15.14-46.71
		c1.83-15.34-1.73-28.4-4.9-36.86c2.98-1.63,6.39-3.3,10.23-4.86c4.05-1.64,7.85-2.87,11.27-3.8c7.42-1.82,14.84-3.63,22.25-5.45
		c5.96-1.07,11.92-2.14,17.88-3.2c4.18-9.26,5.79-17.32,6.46-22.98c1.46-12.25-0.5-21.87-2.5-32.46
		c-1.78-9.42-4.18-17.17-6.19-22.79c6.16,7.26,12.35,14.75,18.54,22.48c3,3.75,5.95,7.48,8.84,11.2c1.59,2.6,3.64,5.84,6.15,9.5
		c3.03,4.43,5.47,7.65,7.34,10.11c4.49,5.92,6.74,8.87,8.83,11.05c2.55,2.65,6.77,7.04,13.35,10.31c8.22,4.09,15.77,4.26,22.8,4.43
		c3.45,0.08,8.13,0.16,14.11-1.21c7.67-1.75,12.89-4.8,12.85-4.91C840.91,393.57,827.01,403.24,807.34,405.15z"/>
	<path class="st36" d="M900.61,318.92c-2.22,5.21-4.93,12.66-6.79,21.91c-2.93,14.58-2.01,25.03-1.78,27.41
		c1.42,14.48,6.47,26.09,10.75,26.4c0.63,0.04,2.45-0.07,5.29,0.35c1.66,0.25,2.91,0.57,3.95,0.84c3.98,1.06,7.9,2.32,10.61,3.24
		c13.43,3.52,29.17,9.39,45.21,19.39c54.81,34.2,72.57,91.54,77.61,110.71c-34.12,18.57-117.1,57.82-228.78,52.32
		c-109.2-5.37-186.62-50.6-219.01-72.14c57.35-40.97,69.07-61.94,64.92-73.31c-1.12-3.06-3.24-5.05-3.01-8.56
		c0.92-13.61,35.62-22.62,70.51-28.52c6.39-13.79,7.42-25.33,7.44-32.17c0.02-8.56-1.5-15.63-3.14-23.21
		c-2.08-9.65-4.7-17.52-6.81-23.12c13.55,7.8,47.02,24.63,92.3,22.75C858.77,341.59,887.22,326.97,900.61,318.92z"/>
	<g id="XMLID_00000136370038185571965990000009587757050215910549_" class="st23">
		<g>
			<path class="st3" d="M960.02,141.77c5.72,3.92,5.39,13.17,5.18,19.11c-0.19,5.15-1.13,12.5-4.67,21.3
				c-5.56,13.85-11.51,16.3-10.65,24.81c0.4,3.99,2.01,6.48,0.52,10.21c-1.31,3.3-4.49,6.18-8.33,7.26
				c-2.54,0.72-4.75,0.48-6.01,0.24c-1.48,11.74-3.25,21.43-4.67,28.41c-3.81,18.77-5.85,28.35-11.28,38.53
				c-2.84,5.31-7.03,10.74-15.42,21.6c-5.86,7.59-8.32,10.35-17.5,21.85c-6.5,8.15-10.54,13.21-15.19,19.39
				c-18.41,24.51-22.63,35.14-36.83,41.54c-3.17,1.43-5.89,2.23-7.52,2.65c-5.54,1.16-10.18,1.45-13.56,1.47
				c-1.39,0.01-3.77,0-6.7-0.29c-3.14-0.3-5.92-0.78-7.96-1.18c0,0-3.86-0.97-7.52-2.65c-11.24-5.12-15.91-13.64-36.83-41.54
				c-1.02-1.38-2.31-3.1-3.83-5.09c-1.52-1.98-3.27-4.24-5.22-6.7c-2.79-3.52-4.84-6-6.14-7.6c-8.67-10.64-13-15.96-17.5-21.85
				c-8.59-11.24-12.88-16.85-15.42-21.6c-5.42-10.14-7.45-19.74-11.28-38.53c-1.46-7.18-3.25-16.96-4.76-28.72
				c-1.2,0.22-4.41,0.65-7.94-0.94c-1.08-0.49-3.73-1.72-5.52-4.67c-0.43-0.7-1.49-2.5-1.59-4.93c-0.07-1.55,0.27-3.19,0.79-5.71
				c0.16-0.75,0.37-1.68,0.4-2.99c0,0,0.02-1.18-0.18-2.45c-0.32-1.97-2.47-6.74-6.3-12.55c-1.37-2.39-3.15-5.81-4.78-10.09
				c-3.04-7.97-3.93-14.69-4.25-18.75c-0.79-10.11,0.85-13.97,1.53-15.3c1.78-3.52,3.92-4.85,4.59-5.23
				c2.81-1.61,5.61-1.41,7.07-1.31c0.14,0.01,0.34,0.03,0.58,0.05c4.01,0.43,6.73,2.45,7.68,3.17c0.94,0.72,2.24,1.87,3.48,3.6
				c1.27,1.87,2.35,2.73,3.22,2.55c1.96-0.38,2.9-5.94,2.83-16.66c0.24-8.04,0.6-14.82,0.91-19.92c0.59-9.53,0.97-15.52,2.11-23.7
				c0.8-5.76,1.62-9.96,2.3-13.46c1.96-10.04,3.01-15.28,5.76-21.71c0.19-0.45,2.29-5.29,5.01-9.53
				c11.11-17.24,32.5-23.99,46.57-28.43c8.62-2.72,16.94-4.39,18.41-4.68c7.71-1.53,10.91-1.62,19.04-3.03
				c4.9-0.85,12.11-2.27,20.91-4.65c3.92,1.27,10.28,3.19,18.29,4.96c11.71,2.58,16.49,2.53,28.67,5.13
				c7.04,1.5,12.95,2.76,20.48,5.42c10.09,3.58,19.8,7.01,29.05,15.8c1.78,1.68,7.6,7.42,12.38,16.73
				c4.66,9.09,6.19,17.4,6.75,22.65c1.04,8.43,2.08,16.87,3.12,25.31c0.81,7.1,1.78,17.38,2.22,29.88
				c0.39,10.94,0.42,19.8,2.66,20.19c1.28,0.23,1.82-2.57,5.79-5.57c1.56-1.17,5.33-3.93,10.41-3.75
				C954.29,139.85,957.38,139.95,960.02,141.77z"/>
		</g>
	</g>
	<path class="st35" d="M666.38,142.05c0.12,0.25,2.25-1.06,5.21-1.19c2.78-0.13,4.93,0.84,5.63,1.16c2.12,0.99,3.61,2.66,6.5,5.97
		c2.45,2.8,3.02,3.88,5.14,5.52c1.76,1.37,3.11,2.39,4.51,2.12c2.4-0.45,3.53-4.46,4.02-6.38c3.27-12.78,3.65-33.51,4.81-46.39
		c0.78-8.65,2.05-15.28,3.08-20.63c2.39-12.48,3.59-18.73,6.38-24.76c1.89-4.09,8.3-16.71,21.99-25.35
		c8.22-5.19,15.63-6.78,21.43-8.04c17.27-3.75,35.89-7.95,58.71-13.17c-0.08-2.61-0.16-5.22-0.24-7.84
		c-1.99,0.56-5.09,1.38-8.92,2.23c-8.86,1.96-13.36,2.2-23.17,3.93c-2.92,0.52-7.42,1.32-13.23,2.67
		c-9.52,2.22-17.6,4.78-24.47,7.33c-6.81,2.53-10.37,4.28-11.94,5.08c-2.81,1.43-6.18,3.16-10.18,6.11
		c-1.99,1.47-5.28,3.91-8.76,7.83c-5.37,6.05-7.92,11.94-9.28,15.13c-1.74,4.09-2.56,7.28-3.69,11.64
		c-1.18,4.53-1.77,7.93-2.89,14.38c-0.66,3.78-1.24,7.13-1.82,11.73c-0.67,5.27-0.95,9.19-1.36,14.66c-0.33,4.53-0.51,8-0.7,11.56
		c-0.3,5.68-0.45,8.53-0.49,10.97c-0.07,3.89-0.46,7.78-0.31,11.66c0,0,0.04,1.09-0.98,6.56c-0.03,0.17-0.17,0.86-0.67,1.51
		c-0.21,0.27-0.52,0.67-1,0.78c-0.47,0.1-0.95-0.12-1.54-0.58c-0.94-0.74-1.42-1.11-2.09-2.53c-1.38-2.9-5.65-4.72-6.76-5.19
		c-0.94-0.4-5.37-2.29-9.77-0.59C667.7,140.66,666.28,141.84,666.38,142.05z"/>
	<path class="st43" d="M668.56,147.58c2.53-1.57,6.24,0.22,7.02,0.59c3.53,1.7,3.87,4.19,9.12,12.18c3.99,6.08,4.61,5.89,5.56,8.67
		c0.55,1.61,2.9,8.52-0.33,12.84c-1.19,1.59-2.46,1.93-3.4,4.14c-0.98,2.31-0.65,4.52-0.55,5.33c0.55,4.2,3.89,4.49,5.6,9.15
		c0.37,1.02,1.74,4.73,0.04,8c-2.04,3.92-7.81,5.88-10.08,4.14c-2.05-1.58,0.29-5.04-0.36-11.43c-0.37-3.65-1.23-3.44-7.53-16.78
		c-3.09-6.54-4.79-10.88-6.23-16.38c-0.4-1.52-0.72-3.16-0.97-5.12C665.84,158.07,664.8,149.92,668.56,147.58z"/>
	<g id="XMLID_00000021110235734265501660000015249547100944397727_" class="st23">
		<g>
			<path class="st14" d="M814.09,400.14c-1.39,0.01-3.77,0-6.7-0.29c-3.14-0.3-5.92-0.78-7.96-1.18c0,0-3.86-0.97-7.52-2.65
				c-11.24-5.12-15.91-13.64-36.83-41.54c-1.02-1.38-2.31-3.1-3.83-5.09c-1.52-1.98-3.27-4.24-5.22-6.7c-2.79-3.52-4.84-6-6.14-7.6
				c-8.67-10.64-13-15.96-17.5-21.85c-8.59-11.24-12.88-16.85-15.42-21.6c-5.42-10.14-7.45-19.74-11.28-38.53
				c-1.46-7.18-3.25-16.96-4.76-28.72c-1.2,0.22-4.41,0.65-7.94-0.94c-1.08-0.49-3.73-1.72-5.52-4.67c-0.43-0.7-1.49-2.5-1.59-4.93
				c-0.07-1.55,0.27-3.19,0.79-5.71c0.16-0.75,0.37-1.68,0.4-2.99c0,0,0.02-1.18-0.18-2.45c-0.32-1.97-2.47-6.74-6.3-12.55
				c-1.37-2.39-3.15-5.81-4.78-10.09c-3.04-7.97-3.93-14.69-4.25-18.75c-0.79-10.11,0.85-13.97,1.53-15.3
				c1.78-3.52,3.92-4.85,4.59-5.23c2.81-1.61,5.61-1.41,7.07-1.31c0.14,0.01,0.34,0.03,0.58,0.05c4.01,0.43,6.73,2.45,7.68,3.17
				c0.94,0.72,2.24,1.87,3.48,3.6c1.27,1.87,2.35,2.73,3.22,2.55c1.96-0.38,2.9-5.94,2.83-16.66c0.24-8.04,0.6-14.82,0.91-19.92
				c0.59-9.53,0.97-15.52,2.11-23.7c0.8-5.76,1.62-9.96,2.3-13.46c1.96-10.04,3.01-15.28,5.76-21.71c0.19-0.45,2.29-5.29,5.01-9.53
				c11.11-17.24,32.5-23.99,46.57-28.43c8.62-2.72,16.94-4.39,18.41-4.68c7.71-1.53,10.91-1.62,19.04-3.03
				c4.9-0.85,12.11-2.27,20.91-4.65c3.92,1.27,10.28,3.19,18.29,4.96c11.71,2.58,16.49,2.53,28.67,5.13
				c7.04,1.5,12.95,2.76,20.48,5.42c10.09,3.58,19.8,7.01,29.05,15.8c1.78,1.68,7.6,7.42,12.38,16.73
				c4.66,9.09,6.19,17.4,6.75,22.65c1.04,8.43,2.08,16.87,3.12,25.31c0.81,7.1,1.78,17.38,2.22,29.88
				c0.39,10.94,0.42,19.8,2.66,20.19c1.28,0.23,1.82-2.57,5.79-5.57c1.56-1.17,5.33-3.93,10.41-3.75c0.91,0.03,4,0.13,6.64,1.95
				c5.72,3.92,5.39,13.17,5.18,19.11c-0.19,5.15-1.13,12.5-4.67,21.3c-5.56,13.85-11.51,16.3-10.65,24.81
				c0.4,3.99,2.01,6.48,0.52,10.21c-1.31,3.3-4.49,6.18-8.33,7.26c-2.54,0.72-4.75,0.48-6.01,0.24
				c-1.48,11.74-3.25,21.43-4.67,28.41c-3.81,18.77-5.85,28.35-11.28,38.53c-2.84,5.31-7.03,10.74-15.42,21.6
				c-5.86,7.59-8.32,10.35-17.5,21.85c-6.5,8.15-10.54,13.21-15.19,19.39c-18.41,24.51-22.63,35.14-36.83,41.54
				c-3.17,1.43-5.89,2.23-7.52,2.65C822.11,399.83,817.47,400.12,814.09,400.14z"/>
		</g>
	</g>
</g>
</svg>
